ISO-10303-21;
HEADER;
/* Generated by software containing ST-Developer
 * from STEP Tools, Inc. (www.steptools.com) 
 */

FILE_DESCRIPTION(
/* description */ (''),
/* implementation_level */ '2;1');

FILE_NAME(
/* name */ 'Suspenion_Arm_Assembly_V2_Member.stp',
/* time_stamp */ '2026-09-26T17:22:07-04:00',
/* author */ ('share'),
/* organization */ (''),
/* preprocessor_version */ 'ST-DEVELOPER v20.1',
/* originating_system */ 'Autodesk Inventor 2026',
/* authorisation */ '');

FILE_SCHEMA (('AUTOMOTIVE_DESIGN { 1 0 10303 214 3 1 1 }'));
ENDSEC;

DATA;
#10=MECHANICAL_DESIGN_GEOMETRIC_PRESENTATION_REPRESENTATION('',(#22,#23,
#24,#25,#26,#27,#28),#201);
#11=GEOMETRICALLY_BOUNDED_WIREFRAME_SHAPE_REPRESENTATION('',(#12,#13),#200);
#12=GEOMETRIC_CURVE_SET('Sketch1',(#17,#18,#19,#20));
#13=GEOMETRIC_CURVE_SET('Sketch2',(#21,#52,#197));
#14=SHAPE_REPRESENTATION_RELATIONSHIP('SRR','None',#208,#16);
#15=SHAPE_REPRESENTATION_RELATIONSHIP('SRR','None',#208,#11);
#16=ADVANCED_BREP_SHAPE_REPRESENTATION('',(#29),#200);
#17=POLYLINE('',(#186,#187));
#18=POLYLINE('',(#188,#189));
#19=POLYLINE('',(#190,#191));
#20=POLYLINE('',(#192,#193));
#21=POLYLINE('',(#194,#195));
#22=STYLED_ITEM('',(#217),#29);
#23=STYLED_ITEM('',(#218),#17);
#24=STYLED_ITEM('',(#218),#18);
#25=STYLED_ITEM('',(#218),#19);
#26=STYLED_ITEM('',(#218),#20);
#27=STYLED_ITEM('',(#219),#21);
#28=STYLED_ITEM('',(#218),#52);
#29=MANIFOLD_SOLID_BREP('Solid1',#83);
#30=FACE_BOUND('',#44,.T.);
#31=B_SPLINE_CURVE_WITH_KNOTS('',3,(#147,#148,#149,#150,#151,#152,#153,
#154,#155,#156,#157,#158,#159,#160,#161,#162,#163,#164,#165,#166,#167,#168,
#169,#170,#171,#172,#173,#174,#175,#176,#177,#178,#179,#180),
 .UNSPECIFIED.,.T.,.F.,(4,2,2,2,2,2,2,2,2,2,2,2,2,2,2,2,4),(0.,0.242130284085576,
0.484260568171152,0.726169452671101,0.96807833717105,1.209987221671,1.45189610617095,
1.69402639025652,1.9361566743421,2.17828695842767,2.42041724251325,2.6623261270132,
2.90423501151315,3.1461438960131,3.38805278051304,3.63018306459862,3.8723133486842),
 .UNSPECIFIED.);
#32=PLANE('',#109);
#33=PLANE('',#113);
#34=FACE_OUTER_BOUND('',#39,.T.);
#35=FACE_OUTER_BOUND('',#40,.T.);
#36=FACE_OUTER_BOUND('',#41,.T.);
#37=FACE_OUTER_BOUND('',#42,.T.);
#38=FACE_OUTER_BOUND('',#43,.T.);
#39=EDGE_LOOP('',(#63,#64,#65,#66));
#40=EDGE_LOOP('',(#67));
#41=EDGE_LOOP('',(#68));
#42=EDGE_LOOP('',(#69,#70,#71,#72));
#43=EDGE_LOOP('',(#73));
#44=EDGE_LOOP('',(#74));
#45=LINE('',#142,#47);
#46=LINE('',#184,#48);
#47=VECTOR('',#121,4.2164);
#48=VECTOR('',#132,6.35);
#49=CIRCLE('',#107,4.2164);
#50=CIRCLE('',#108,4.2164);
#51=CIRCLE('',#112,6.35000000000002);
#52=CIRCLE('',#114,16.25);
#53=VERTEX_POINT('',#139);
#54=VERTEX_POINT('',#141);
#55=VERTEX_POINT('',#146);
#56=VERTEX_POINT('',#182);
#57=EDGE_CURVE('',#53,#53,#49,.T.);
#58=EDGE_CURVE('',#53,#54,#45,.T.);
#59=EDGE_CURVE('',#54,#54,#50,.T.);
#60=EDGE_CURVE('',#55,#55,#31,.T.);
#61=EDGE_CURVE('',#56,#56,#51,.T.);
#62=EDGE_CURVE('',#56,#55,#46,.T.);
#63=ORIENTED_EDGE('',*,*,#57,.F.);
#64=ORIENTED_EDGE('',*,*,#58,.T.);
#65=ORIENTED_EDGE('',*,*,#59,.T.);
#66=ORIENTED_EDGE('',*,*,#58,.F.);
#67=ORIENTED_EDGE('',*,*,#59,.F.);
#68=ORIENTED_EDGE('',*,*,#60,.F.);
#69=ORIENTED_EDGE('',*,*,#61,.F.);
#70=ORIENTED_EDGE('',*,*,#62,.T.);
#71=ORIENTED_EDGE('',*,*,#60,.T.);
#72=ORIENTED_EDGE('',*,*,#62,.F.);
#73=ORIENTED_EDGE('',*,*,#61,.T.);
#74=ORIENTED_EDGE('',*,*,#57,.T.);
#75=CYLINDRICAL_SURFACE('',#106,4.2164);
#76=CYLINDRICAL_SURFACE('',#110,16.25);
#77=CYLINDRICAL_SURFACE('',#111,6.35);
#78=ADVANCED_FACE('',(#34),#75,.F.);
#79=ADVANCED_FACE('',(#35),#32,.T.);
#80=ADVANCED_FACE('',(#36),#76,.F.);
#81=ADVANCED_FACE('',(#37),#77,.T.);
#82=ADVANCED_FACE('',(#38,#30),#33,.T.);
#83=CLOSED_SHELL('',(#78,#79,#80,#81,#82));
#84=DERIVED_UNIT_ELEMENT(#87,1.);
#85=DERIVED_UNIT_ELEMENT(#203,-3.);
#86=DIMENSIONAL_EXPONENTS(0.,1.,0.,0.,0.,0.,0.);
#87=(
CONVERSION_BASED_UNIT('gram',#89)
MASS_UNIT()
NAMED_UNIT(#86)
);
#88=(
MASS_UNIT()
NAMED_UNIT(*)
SI_UNIT(.KILO.,.GRAM.)
);
#89=MASS_MEASURE_WITH_UNIT(MASS_MEASURE(0.001),#88);
#90=DERIVED_UNIT((#84,#85));
#91=MEASURE_REPRESENTATION_ITEM('density measure',
POSITIVE_RATIO_MEASURE(7.85),#90);
#92=PROPERTY_DEFINITION_REPRESENTATION(#97,#94);
#93=PROPERTY_DEFINITION_REPRESENTATION(#98,#95);
#94=REPRESENTATION('material name',(#96),#200);
#95=REPRESENTATION('density',(#91),#200);
#96=DESCRIPTIVE_REPRESENTATION_ITEM('Steel, Mild','Steel, Mild');
#97=PROPERTY_DEFINITION('material property','material name',#210);
#98=PROPERTY_DEFINITION('material property','density of part',#210);
#99=DATE_TIME_ROLE('creation_date');
#100=APPLIED_DATE_AND_TIME_ASSIGNMENT(#101,#99,(#210));
#101=DATE_AND_TIME(#102,#103);
#102=CALENDAR_DATE(2026,20,9);
#103=LOCAL_TIME(0,0,0.,#104);
#104=COORDINATED_UNIVERSAL_TIME_OFFSET(0,0,.BEHIND.);
#105=AXIS2_PLACEMENT_3D('',#137,#115,#116);
#106=AXIS2_PLACEMENT_3D('',#138,#117,#118);
#107=AXIS2_PLACEMENT_3D('',#140,#119,#120);
#108=AXIS2_PLACEMENT_3D('',#143,#122,#123);
#109=AXIS2_PLACEMENT_3D('',#144,#124,#125);
#110=AXIS2_PLACEMENT_3D('',#145,#126,#127);
#111=AXIS2_PLACEMENT_3D('',#181,#128,#129);
#112=AXIS2_PLACEMENT_3D('',#183,#130,#131);
#113=AXIS2_PLACEMENT_3D('',#185,#133,#134);
#114=AXIS2_PLACEMENT_3D('',#196,#135,#136);
#115=DIRECTION('axis',(0.,0.,1.));
#116=DIRECTION('refdir',(1.,0.,0.));
#117=DIRECTION('center_axis',(-1.8576566356917E-16,0.,-1.));
#118=DIRECTION('ref_axis',(1.,0.,-1.8576566356917E-16));
#119=DIRECTION('center_axis',(-1.88173394004264E-16,0.,-1.));
#120=DIRECTION('ref_axis',(1.,0.,-1.8576566356917E-16));
#121=DIRECTION('',(-1.8576566356917E-16,0.,-1.));
#122=DIRECTION('center_axis',(-1.88173394004264E-16,0.,-1.));
#123=DIRECTION('ref_axis',(1.,0.,-1.88173394004264E-16));
#124=DIRECTION('center_axis',(1.88173394004264E-16,0.,1.));
#125=DIRECTION('ref_axis',(1.,0.,-1.88173394004264E-16));
#126=DIRECTION('center_axis',(0.,1.,0.));
#127=DIRECTION('ref_axis',(-1.,0.,0.));
#128=DIRECTION('center_axis',(1.88173394004264E-16,0.,1.));
#129=DIRECTION('ref_axis',(-1.,0.,1.88173394004264E-16));
#130=DIRECTION('center_axis',(1.88173394004264E-16,0.,1.));
#131=DIRECTION('ref_axis',(1.,0.,-1.88173394004264E-16));
#132=DIRECTION('',(-1.88173394004264E-16,0.,-1.));
#133=DIRECTION('center_axis',(1.88173394004264E-16,0.,1.));
#134=DIRECTION('ref_axis',(1.,0.,-1.88173394004264E-16));
#135=DIRECTION('center_axis',(0.,1.,0.));
#136=DIRECTION('ref_axis',(-1.,0.,0.));
#137=CARTESIAN_POINT('',(0.,0.,0.));
#138=CARTESIAN_POINT('Origin',(7.88860905221012E-30,0.,-1.48442633932714E-45));
#139=CARTESIAN_POINT('',(-4.2164,5.1636007639249E-16,7.83262343873048E-16));
#140=CARTESIAN_POINT('Origin',(7.88860905221012E-30,0.,-1.46543269522157E-45));
#141=CARTESIAN_POINT('',(-4.21640000000001,5.1636007639249E-16,-50.8));
#142=CARTESIAN_POINT('',(-4.2164,5.1636007639249E-16,7.83262343873048E-16));
#143=CARTESIAN_POINT('Origin',(-9.43689570931382E-15,0.,-50.8));
#144=CARTESIAN_POINT('Origin',(-9.43689570931383E-15,0.,-50.8));
#145=CARTESIAN_POINT('Origin',(-5.55111512312578E-14,0.,-295.));
#146=CARTESIAN_POINT('',(6.34999999999995,-9.71445146547012E-16,-280.042058965219));
#147=CARTESIAN_POINT('Ctrl Pts',(6.34999999999995,-9.71445146547012E-16,
-280.042058965219));
#148=CARTESIAN_POINT('Ctrl Pts',(6.34999999999995,0.80710094695192,-280.042058965219));
#149=CARTESIAN_POINT('Ctrl Pts',(6.18693143041108,1.66122855712743,-279.969830680239));
#150=CARTESIAN_POINT('Ctrl Pts',(5.53644528390163,3.22266726632561,-279.718250238079));
#151=CARTESIAN_POINT('Ctrl Pts',(5.04939417890218,3.93086194216692,-279.543456021041));
#152=CARTESIAN_POINT('Ctrl Pts',(3.93137332506691,5.04888279600219,-279.222014763317));
#153=CARTESIAN_POINT('Ctrl Pts',(3.2229835211555,5.53632264604613,-279.053242183978));
#154=CARTESIAN_POINT('Ctrl Pts',(1.66078970655101,6.18710514024302,-278.815795193338));
#155=CARTESIAN_POINT('Ctrl Pts',(0.806362948333111,6.35,-278.75));
#156=CARTESIAN_POINT('Ctrl Pts',(-0.806362948333214,6.35,-278.75));
#157=CARTESIAN_POINT('Ctrl Pts',(-1.66078970655111,6.18710514024302,-278.815795193338));
#158=CARTESIAN_POINT('Ctrl Pts',(-3.22298352115561,5.53632264604613,-279.053242183978));
#159=CARTESIAN_POINT('Ctrl Pts',(-3.93137332506701,5.04888279600219,-279.222014763317));
#160=CARTESIAN_POINT('Ctrl Pts',(-5.04939417890228,3.93086194216692,-279.543456021041));
#161=CARTESIAN_POINT('Ctrl Pts',(-5.53644528390173,3.2226672663256,-279.718250238079));
#162=CARTESIAN_POINT('Ctrl Pts',(-6.18693143041118,1.66122855712743,-279.969830680239));
#163=CARTESIAN_POINT('Ctrl Pts',(-6.35000000000005,0.80710094695192,-280.042058965218));
#164=CARTESIAN_POINT('Ctrl Pts',(-6.35000000000005,-0.80710094695192,-280.042058965218));
#165=CARTESIAN_POINT('Ctrl Pts',(-6.18693143041118,-1.66122855712743,-279.969830680239));
#166=CARTESIAN_POINT('Ctrl Pts',(-5.53644528390173,-3.2226672663256,-279.718250238079));
#167=CARTESIAN_POINT('Ctrl Pts',(-5.04939417890228,-3.93086194216692,-279.543456021041));
#168=CARTESIAN_POINT('Ctrl Pts',(-3.93137332506701,-5.04888279600219,-279.222014763317));
#169=CARTESIAN_POINT('Ctrl Pts',(-3.22298352115561,-5.53632264604613,-279.053242183978));
#170=CARTESIAN_POINT('Ctrl Pts',(-1.66078970655111,-6.18710514024302,-278.815795193338));
#171=CARTESIAN_POINT('Ctrl Pts',(-0.806362948333217,-6.35,-278.75));
#172=CARTESIAN_POINT('Ctrl Pts',(0.806362948333107,-6.35,-278.75));
#173=CARTESIAN_POINT('Ctrl Pts',(1.660789706551,-6.18710514024302,-278.815795193338));
#174=CARTESIAN_POINT('Ctrl Pts',(3.22298352115549,-5.53632264604613,-279.053242183978));
#175=CARTESIAN_POINT('Ctrl Pts',(3.9313733250669,-5.0488827960022,-279.222014763317));
#176=CARTESIAN_POINT('Ctrl Pts',(5.04939417890217,-3.93086194216693,-279.543456021041));
#177=CARTESIAN_POINT('Ctrl Pts',(5.53644528390162,-3.22266726632561,-279.718250238079));
#178=CARTESIAN_POINT('Ctrl Pts',(6.18693143041108,-1.66122855712743,-279.969830680239));
#179=CARTESIAN_POINT('Ctrl Pts',(6.34999999999995,-0.807100946951921,-280.042058965219));
#180=CARTESIAN_POINT('Ctrl Pts',(6.34999999999995,1.2490009027033E-15,-280.042058965219));
#181=CARTESIAN_POINT('Origin',(-2.77555756156289E-14,0.,-147.5));
#182=CARTESIAN_POINT('',(6.35,7.77650717458569E-16,0.));
#183=CARTESIAN_POINT('Origin',(0.,0.,0.));
#184=CARTESIAN_POINT('',(6.34999999999997,7.77650717458569E-16,-147.5));
#185=CARTESIAN_POINT('Origin',(0.,0.,0.));
#186=CARTESIAN_POINT('polyline point',(0.,0.,0.));
#187=CARTESIAN_POINT('polyline point',(-6.35000000000002,0.,0.));
#188=CARTESIAN_POINT('polyline point',(-6.35000000000002,0.,0.));
#189=CARTESIAN_POINT('polyline point',(-6.35000000000003,0.,-295.));
#190=CARTESIAN_POINT('polyline point',(-6.35000000000003,0.,-295.));
#191=CARTESIAN_POINT('polyline point',(-5.55111512312578E-14,0.,-295.));
#192=CARTESIAN_POINT('polyline point',(-5.55111512312578E-14,0.,-295.));
#193=CARTESIAN_POINT('polyline point',(0.,0.,0.));
#194=CARTESIAN_POINT('polyline point',(-6.35000000000003,0.,-295.));
#195=CARTESIAN_POINT('polyline point',(6.34999999999992,0.,-295.));
#196=CARTESIAN_POINT('Origin',(-5.55111512312578E-14,0.,-295.));
#197=CARTESIAN_POINT('',(0.,0.,0.));
#198=UNCERTAINTY_MEASURE_WITH_UNIT(LENGTH_MEASURE(0.01),#202,
'DISTANCE_ACCURACY_VALUE',
'Maximum model space distance between geometric entities at asserted c
onnectivities');
#199=UNCERTAINTY_MEASURE_WITH_UNIT(LENGTH_MEASURE(0.01),#202,
'DISTANCE_ACCURACY_VALUE',
'Maximum model space distance between geometric entities at asserted c
onnectivities');
#200=(
GEOMETRIC_REPRESENTATION_CONTEXT(3)
GLOBAL_UNCERTAINTY_ASSIGNED_CONTEXT((#198))
GLOBAL_UNIT_ASSIGNED_CONTEXT((#202,#204,#205))
REPRESENTATION_CONTEXT('','3D')
);
#201=(
GEOMETRIC_REPRESENTATION_CONTEXT(3)
GLOBAL_UNCERTAINTY_ASSIGNED_CONTEXT((#199))
GLOBAL_UNIT_ASSIGNED_CONTEXT((#202,#204,#205))
REPRESENTATION_CONTEXT('','3D')
);
#202=(
LENGTH_UNIT()
NAMED_UNIT(*)
SI_UNIT(.MILLI.,.METRE.)
);
#203=(
LENGTH_UNIT()
NAMED_UNIT(*)
SI_UNIT(.CENTI.,.METRE.)
);
#204=(
NAMED_UNIT(*)
PLANE_ANGLE_UNIT()
SI_UNIT($,.RADIAN.)
);
#205=(
NAMED_UNIT(*)
SI_UNIT($,.STERADIAN.)
SOLID_ANGLE_UNIT()
);
#206=SHAPE_DEFINITION_REPRESENTATION(#207,#208);
#207=PRODUCT_DEFINITION_SHAPE('',$,#210);
#208=SHAPE_REPRESENTATION('',(#105),#200);
#209=PRODUCT_DEFINITION_CONTEXT('part definition',#214,'design');
#210=PRODUCT_DEFINITION('Suspenion_Arm_Assembly_V2_Member',
'Suspenion_Arm_Assembly_V2_Member',#211,#209);
#211=PRODUCT_DEFINITION_FORMATION('',$,#216);
#212=PRODUCT_RELATED_PRODUCT_CATEGORY(
'Suspenion_Arm_Assembly_V2_Member','Suspenion_Arm_Assembly_V2_Member',(#216));
#213=APPLICATION_PROTOCOL_DEFINITION('international standard',
'automotive_design',2009,#214);
#214=APPLICATION_CONTEXT(
'Core Data for Automotive Mechanical Design Process');
#215=PRODUCT_CONTEXT('part definition',#214,'mechanical');
#216=PRODUCT('Suspenion_Arm_Assembly_V2_Member',
'Suspenion_Arm_Assembly_V2_Member',$,(#215));
#217=PRESENTATION_STYLE_ASSIGNMENT((#220));
#218=PRESENTATION_STYLE_ASSIGNMENT((#221));
#219=PRESENTATION_STYLE_ASSIGNMENT((#222));
#220=SURFACE_STYLE_USAGE(.BOTH.,#225);
#221=SURFACE_STYLE_USAGE(.BOTH.,#226);
#222=SURFACE_STYLE_USAGE(.BOTH.,#227);
#223=SURFACE_STYLE_RENDERING_WITH_PROPERTIES($,#237,(#224));
#224=SURFACE_STYLE_TRANSPARENT(0.);
#225=SURFACE_SIDE_STYLE('',(#228,#223));
#226=SURFACE_SIDE_STYLE('',(#229));
#227=SURFACE_SIDE_STYLE('',(#230));
#228=SURFACE_STYLE_FILL_AREA(#231);
#229=SURFACE_STYLE_FILL_AREA(#232);
#230=SURFACE_STYLE_FILL_AREA(#233);
#231=FILL_AREA_STYLE('',(#234));
#232=FILL_AREA_STYLE('',(#235));
#233=FILL_AREA_STYLE('',(#236));
#234=FILL_AREA_STYLE_COLOUR('',#237);
#235=FILL_AREA_STYLE_COLOUR('',#238);
#236=FILL_AREA_STYLE_COLOUR('',#239);
#237=COLOUR_RGB('',0.745098039215686,0.737254901960784,0.729411764705882);
#238=COLOUR_RGB('',1.,1.,1.);
#239=COLOUR_RGB('',0.913725490196078,0.913725490196078,0.);
ENDSEC;
END-ISO-10303-21;
