ISO-10303-21;
HEADER;
FILE_DESCRIPTION (( 'STEP AP203' ),
    '1' );
FILE_NAME ('6045N121_Low-Carbon Steel Round Tube.STEP',
    '2026-01-11T15:42:28',
    ( 'McMaster Carr Supply' ),
    ( 'McMaster Carr Supply' ),
    'SwSTEP 2.0',
    'SolidWorks 2024',
    '' );
FILE_SCHEMA (( 'CONFIG_CONTROL_DESIGN' ));
ENDSEC;

DATA;
#1 = APPLICATION_CONTEXT ( 'configuration controlled 3d designs of mechanical parts and assemblies' ) ;
#2 = DIRECTION ( 'NONE',  ( -0.000000000000000000, -0.000000000000000000, -1.000000000000000000 ) ) ;
#3 = EDGE_CURVE ( 'NONE', #149, #180, #171, .T. ) ;
#4 = FACE_OUTER_BOUND ( 'NONE', #199, .T. ) ;
#5 = LINE ( 'NONE', #93, #59 ) ;
#6 = APPROVAL ( #139, 'UNSPECIFIED' ) ;
#7 = ORIENTED_EDGE ( 'NONE', *, *, #140, .T. ) ;
#8 = PLANE ( 'NONE',  #161 ) ;
#9 = PERSON_AND_ORGANIZATION ( #138, #212 ) ;
#10 = APPROVAL_DATE_TIME ( #115, #41 ) ;
#11 = AXIS2_PLACEMENT_3D ( 'NONE', #21, #106, #35 ) ;
#12 = DATE_TIME_ROLE ( 'creation_date' ) ;
#13 = FACE_OUTER_BOUND ( 'NONE', #165, .T. ) ;
#14 = EDGE_LOOP ( 'NONE', ( #144, #64, #187, #238 ) ) ;
#15 = APPROVAL_PERSON_ORGANIZATION ( #99, #213, #227 ) ;
#16 = EDGE_LOOP ( 'NONE', ( #7, #160 ) ) ;
#17 = CARTESIAN_POINT ( 'NONE',  ( 6.000000000000000888, 7.347880794884120722E-16, -457.1999999999999318 ) ) ;
#18 = AXIS2_PLACEMENT_3D ( 'NONE', #170, #108, #202 ) ;
#19 = ADVANCED_FACE ( 'NONE', ( #127 ), #102, .F. ) ;
#20 = CARTESIAN_POINT ( 'NONE',  ( 0.000000000000000000, 0.000000000000000000, 457.1999999999999318 ) ) ;
#21 = CARTESIAN_POINT ( 'NONE',  ( 0.000000000000000000, 0.000000000000000000, 457.1999999999999318 ) ) ;
#22 = CARTESIAN_POINT ( 'NONE',  ( -6.000000000000000888, 0.000000000000000000, 457.1999999999999318 ) ) ;
#23 = CARTESIAN_POINT ( 'NONE',  ( 0.000000000000000000, 0.000000000000000000, 457.1999999999999318 ) ) ;
#24 = AXIS2_PLACEMENT_3D ( 'NONE', #150, #237, #218 ) ;
#25 = CARTESIAN_POINT ( 'NONE',  ( 0.000000000000000000, 0.000000000000000000, 457.1999999999999318 ) ) ;
#26 = UNCERTAINTY_MEASURE_WITH_UNIT (LENGTH_MEASURE( 1.000000000000000082E-05 ), #145, 'distance_accuracy_value', 'NONE');
#27 = PERSON_AND_ORGANIZATION ( #138, #212 ) ;
#28 = APPROVAL_STATUS ( 'not_yet_approved' ) ;
#29 = CC_DESIGN_PERSON_AND_ORGANIZATION_ASSIGNMENT ( #27, #191, ( #101 ) ) ;
#30 =( NAMED_UNIT ( * ) SI_UNIT ( $, .STERADIAN. ) SOLID_ANGLE_UNIT ( ) );
#31 = COORDINATED_UNIVERSAL_TIME_OFFSET ( 6, 0, .BEHIND. ) ;
#32 = LOCAL_TIME ( 9, 42, 28.00000000000000000, #114 ) ;
#33 = VECTOR ( 'NONE', #241, 1000.000000000000000 ) ;
#34 = FACE_OUTER_BOUND ( 'NONE', #14, .T. ) ;
#35 = DIRECTION ( 'NONE',  ( -1.000000000000000000, 0.000000000000000000, 0.000000000000000000 ) ) ;
#36 = DIRECTION ( 'NONE',  ( 0.000000000000000000, 0.000000000000000000, 1.000000000000000000 ) ) ;
#37 = EDGE_LOOP ( 'NONE', ( #89, #125 ) ) ;
#38 = CARTESIAN_POINT ( 'NONE',  ( 0.000000000000000000, 0.000000000000000000, -457.1999999999999318 ) ) ;
#39 = ORIENTED_EDGE ( 'NONE', *, *, #225, .F. ) ;
#40 = FACE_OUTER_BOUND ( 'NONE', #37, .T. ) ;
#41 = APPROVAL ( #156, 'UNSPECIFIED' ) ;
#42 = ADVANCED_FACE ( 'NONE', ( #118, #13 ), #232, .F. ) ;
#43 = ORIENTED_EDGE ( 'NONE', *, *, #231, .F. ) ;
#44 = CARTESIAN_POINT ( 'NONE',  ( 0.000000000000000000, 0.000000000000000000, -457.1999999999999318 ) ) ;
#45 = DIRECTION ( 'NONE',  ( 0.000000000000000000, 0.000000000000000000, 1.000000000000000000 ) ) ;
#46 = VECTOR ( 'NONE', #230, 1000.000000000000000 ) ;
#47 = CARTESIAN_POINT ( 'NONE',  ( 4.000000000000000000, 4.898587196589412829E-16, -457.1999999999999318 ) ) ;
#48 = CARTESIAN_POINT ( 'NONE',  ( -4.000000000000000000, 0.000000000000000000, 457.1999999999999318 ) ) ;
#49 = CC_DESIGN_APPROVAL ( #6, ( #101 ) ) ;
#50 = DIRECTION ( 'NONE',  ( -0.000000000000000000, -0.000000000000000000, -1.000000000000000000 ) ) ;
#51 = PERSON_AND_ORGANIZATION ( #138, #212 ) ;
#52 = AXIS2_PLACEMENT_3D ( 'NONE', #129, #188, #222 ) ;
#53 = PERSON_AND_ORGANIZATION_ROLE ( 'design_owner' ) ;
#54 = EDGE_CURVE ( 'NONE', #240, #181, #103, .T. ) ;
#55 = APPLICATION_PROTOCOL_DEFINITION ( 'international standard', 'config_control_design', 1994, #204 ) ;
#56 = CALENDAR_DATE ( 2026, 11, 1 ) ;
#57 = CLOSED_SHELL ( 'NONE', ( #63, #97, #249, #112, #19, #42 ) ) ;
#58 = DATE_TIME_ROLE ( 'classification_date' ) ;
#59 = VECTOR ( 'NONE', #2, 1000.000000000000000 ) ;
#60 = LOCAL_TIME ( 9, 42, 28.00000000000000000, #211 ) ;
#61 = EDGE_LOOP ( 'NONE', ( #216, #169, #86, #217 ) ) ;
#62 = LINE ( 'NONE', #239, #141 ) ;
#63 = ADVANCED_FACE ( 'NONE', ( #34 ), #105, .F. ) ;
#64 = ORIENTED_EDGE ( 'NONE', *, *, #231, .T. ) ;
#65 = CC_DESIGN_SECURITY_CLASSIFICATION ( #122, ( #116 ) ) ;
#66 = LOCAL_TIME ( 9, 42, 28.00000000000000000, #135 ) ;
#67 = CARTESIAN_POINT ( 'NONE',  ( 6.000000000000000888, 7.347880794884120722E-16, 457.1999999999999318 ) ) ;
#68 = ORIENTED_EDGE ( 'NONE', *, *, #208, .F. ) ;
#69 = DIRECTION ( 'NONE',  ( 1.000000000000000000, 0.000000000000000000, 0.000000000000000000 ) ) ;
#70 = ORIENTED_EDGE ( 'NONE', *, *, #192, .F. ) ;
#71 = DIRECTION ( 'NONE',  ( 0.000000000000000000, 0.000000000000000000, 1.000000000000000000 ) ) ;
#72 = CARTESIAN_POINT ( 'NONE',  ( 0.000000000000000000, 0.000000000000000000, 457.1999999999999318 ) ) ;
#73 = AXIS2_PLACEMENT_3D ( 'NONE', #206, #74, #224 ) ;
#74 = DIRECTION ( 'NONE',  ( 0.000000000000000000, 0.000000000000000000, 1.000000000000000000 ) ) ;
#75 = CIRCLE ( 'NONE', #221, 6.000000000000000888 ) ;
#76 = EDGE_CURVE ( 'NONE', #240, #123, #75, .T. ) ;
#77 = LOCAL_TIME ( 9, 42, 28.00000000000000000, #228 ) ;
#78 = PERSON_AND_ORGANIZATION ( #138, #212 ) ;
#79 = AXIS2_PLACEMENT_3D ( 'NONE', #44, #126, #200 ) ;
#80 = DATE_AND_TIME ( #174, #90 ) ;
#81 = CARTESIAN_POINT ( 'NONE',  ( -6.000000000000000888, 0.000000000000000000, 457.1999999999999318 ) ) ;
#82 = CC_DESIGN_PERSON_AND_ORGANIZATION_ASSIGNMENT ( #113, #137, ( #122 ) ) ;
#83 = VERTEX_POINT ( 'NONE', #17 ) ;
#84 = ORIENTED_EDGE ( 'NONE', *, *, #182, .T. ) ;
#85 = CARTESIAN_POINT ( 'NONE',  ( 0.000000000000000000, 0.000000000000000000, -457.1999999999999318 ) ) ;
#86 = ORIENTED_EDGE ( 'NONE', *, *, #208, .T. ) ;
#87 = AXIS2_PLACEMENT_3D ( 'NONE', #25, #162, #186 ) ;
#88 = PRODUCT ( '6045N121_Low-Carbon Steel Round Tube', '6045N121_Low-Carbon Steel Round Tube', '', ( #210 ) ) ;
#89 = ORIENTED_EDGE ( 'NONE', *, *, #76, .T. ) ;
#90 = LOCAL_TIME ( 9, 42, 28.00000000000000000, #31 ) ;
#91 = CARTESIAN_POINT ( 'NONE',  ( 0.000000000000000000, 0.000000000000000000, 457.1999999999999318 ) ) ;
#92 = ORIENTED_EDGE ( 'NONE', *, *, #3, .F. ) ;
#93 = CARTESIAN_POINT ( 'NONE',  ( 6.000000000000000888, 7.347880794884120722E-16, 457.1999999999999318 ) ) ;
#94 = AXIS2_PLACEMENT_3D ( 'NONE', #214, #45, #219 ) ;
#95 = LINE ( 'NONE', #183, #33 ) ;
#96 = CALENDAR_DATE ( 2026, 11, 1 ) ;
#97 = ADVANCED_FACE ( 'NONE', ( #124 ), #203, .T. ) ;
#98 = DATE_AND_TIME ( #177, #32 ) ;
#99 = PERSON_AND_ORGANIZATION ( #138, #212 ) ;
#100 = APPROVAL_ROLE ( '' ) ;
#101 = PRODUCT_DEFINITION ( 'UNKNOWN', '', #116, #136 ) ;
#102 = CYLINDRICAL_SURFACE ( 'NONE', #11, 4.000000000000000000 ) ;
#103 = LINE ( 'NONE', #81, #46 ) ;
#104 = DIRECTION ( 'NONE',  ( 0.000000000000000000, 0.000000000000000000, 1.000000000000000000 ) ) ;
#105 = CYLINDRICAL_SURFACE ( 'NONE', #236, 4.000000000000000000 ) ;
#106 = DIRECTION ( 'NONE',  ( -0.000000000000000000, -0.000000000000000000, -1.000000000000000000 ) ) ;
#107 = CC_DESIGN_APPROVAL ( #41, ( #122 ) ) ;
#108 = DIRECTION ( 'NONE',  ( 0.000000000000000000, 0.000000000000000000, 1.000000000000000000 ) ) ;
#109 = DIRECTION ( 'NONE',  ( 0.000000000000000000, 0.000000000000000000, 1.000000000000000000 ) ) ;
#110 = CIRCLE ( 'NONE', #18, 6.000000000000000888 ) ;
#111 = CARTESIAN_POINT ( 'NONE',  ( 0.000000000000000000, 0.000000000000000000, 457.1999999999999318 ) ) ;
#112 = ADVANCED_FACE ( 'NONE', ( #4 ), #132, .T. ) ;
#113 = PERSON_AND_ORGANIZATION ( #138, #212 ) ;
#114 = COORDINATED_UNIVERSAL_TIME_OFFSET ( 6, 0, .BEHIND. ) ;
#115 = DATE_AND_TIME ( #56, #77 ) ;
#116 = PRODUCT_DEFINITION_FORMATION_WITH_SPECIFIED_SOURCE ( 'ANY', '', #88, .NOT_KNOWN. ) ;
#117 = EDGE_CURVE ( 'NONE', #123, #240, #163, .T. ) ;
#118 = FACE_BOUND ( 'NONE', #16, .T. ) ;
#119 = DIRECTION ( 'NONE',  ( 1.000000000000000000, 0.000000000000000000, -0.000000000000000000 ) ) ;
#120 = AXIS2_PLACEMENT_3D ( 'NONE', #38, #36, #119 ) ;
#121 = AXIS2_PLACEMENT_3D ( 'NONE', #85, #71, #69 ) ;
#122 = SECURITY_CLASSIFICATION ( '', '', #246 ) ;
#123 = VERTEX_POINT ( 'NONE', #67 ) ;
#124 = FACE_OUTER_BOUND ( 'NONE', #61, .T. ) ;
#125 = ORIENTED_EDGE ( 'NONE', *, *, #117, .T. ) ;
#126 = DIRECTION ( 'NONE',  ( 0.000000000000000000, 0.000000000000000000, 1.000000000000000000 ) ) ;
#127 = FACE_OUTER_BOUND ( 'NONE', #243, .T. ) ;
#128 = CC_DESIGN_PERSON_AND_ORGANIZATION_ASSIGNMENT ( #78, #226, ( #116 ) ) ;
#129 = CARTESIAN_POINT ( 'NONE',  ( 0.000000000000000000, 0.000000000000000000, 457.1999999999999318 ) ) ;
#130 = CARTESIAN_POINT ( 'NONE',  ( 4.000000000000000000, 4.898587196589412829E-16, 457.1999999999999318 ) ) ;
#131 = APPROVAL_PERSON_ORGANIZATION ( #51, #41, #195 ) ;
#132 = CYLINDRICAL_SURFACE ( 'NONE', #87, 6.000000000000000888 ) ;
#133 = APPROVAL_DATE_TIME ( #98, #213 ) ;
#134 = MANIFOLD_SOLID_BREP ( 'Boss-Extrude2', #57 ) ;
#135 = COORDINATED_UNIVERSAL_TIME_OFFSET ( 6, 0, .BEHIND. ) ;
#136 = DESIGN_CONTEXT ( 'detailed design', #1, 'design' ) ;
#137 = PERSON_AND_ORGANIZATION_ROLE ( 'classification_officer' ) ;
#138 = PERSON ( 'UNSPECIFIED', 'UNSPECIFIED', 'UNSPECIFIED', ('UNSPECIFIED'), ('UNSPECIFIED'), ('UNSPECIFIED') ) ;
#139 = APPROVAL_STATUS ( 'not_yet_approved' ) ;
#140 = EDGE_CURVE ( 'NONE', #235, #233, #184, .T. ) ;
#141 = VECTOR ( 'NONE', #147, 1000.000000000000000 ) ;
#142 = APPROVAL_PERSON_ORGANIZATION ( #9, #6, #100 ) ;
#143 = CIRCLE ( 'NONE', #24, 4.000000000000000000 ) ;
#144 = ORIENTED_EDGE ( 'NONE', *, *, #3, .T. ) ;
#145 =( LENGTH_UNIT ( ) NAMED_UNIT ( * ) SI_UNIT ( .MILLI., .METRE. ) );
#146 = ORIENTED_EDGE ( 'NONE', *, *, #76, .F. ) ;
#147 = DIRECTION ( 'NONE',  ( -0.000000000000000000, -0.000000000000000000, -1.000000000000000000 ) ) ;
#148 = CC_DESIGN_PERSON_AND_ORGANIZATION_ASSIGNMENT ( #155, #53, ( #88 ) ) ;
#149 = VERTEX_POINT ( 'NONE', #48 ) ;
#150 = CARTESIAN_POINT ( 'NONE',  ( 0.000000000000000000, 0.000000000000000000, -457.1999999999999318 ) ) ;
#151 = ADVANCED_BREP_SHAPE_REPRESENTATION ( '6045N121_Low-Carbon Steel Round Tube', ( #134, #73 ), #247 ) ;
#152 = CIRCLE ( 'NONE', #158, 4.000000000000000000 ) ;
#153 = DIRECTION ( 'NONE',  ( 0.000000000000000000, 0.000000000000000000, 1.000000000000000000 ) ) ;
#154 = PERSON_AND_ORGANIZATION_ROLE ( 'creator' ) ;
#155 = PERSON_AND_ORGANIZATION ( #138, #212 ) ;
#156 = APPROVAL_STATUS ( 'not_yet_approved' ) ;
#157 = APPROVAL_DATE_TIME ( #80, #6 ) ;
#158 = AXIS2_PLACEMENT_3D ( 'NONE', #23, #168, #223 ) ;
#159 = ORIENTED_EDGE ( 'NONE', *, *, #197, .T. ) ;
#160 = ORIENTED_EDGE ( 'NONE', *, *, #192, .T. ) ;
#161 = AXIS2_PLACEMENT_3D ( 'NONE', #72, #109, #189 ) ;
#162 = DIRECTION ( 'NONE',  ( -0.000000000000000000, -0.000000000000000000, -1.000000000000000000 ) ) ;
#163 = CIRCLE ( 'NONE', #164, 6.000000000000000888 ) ;
#164 = AXIS2_PLACEMENT_3D ( 'NONE', #111, #104, #220 ) ;
#165 = EDGE_LOOP ( 'NONE', ( #39, #68 ) ) ;
#166 =( NAMED_UNIT ( * ) PLANE_ANGLE_UNIT ( ) SI_UNIT ( $, .RADIAN. ) );
#167 = EDGE_CURVE ( 'NONE', #123, #83, #5, .T. ) ;
#168 = DIRECTION ( 'NONE',  ( 0.000000000000000000, 0.000000000000000000, 1.000000000000000000 ) ) ;
#169 = ORIENTED_EDGE ( 'NONE', *, *, #167, .T. ) ;
#170 = CARTESIAN_POINT ( 'NONE',  ( 0.000000000000000000, 0.000000000000000000, -457.1999999999999318 ) ) ;
#171 = CIRCLE ( 'NONE', #94, 4.000000000000000000 ) ;
#172 = CARTESIAN_POINT ( 'NONE',  ( -6.000000000000000888, 0.000000000000000000, -457.1999999999999318 ) ) ;
#173 = CALENDAR_DATE ( 2026, 11, 1 ) ;
#174 = CALENDAR_DATE ( 2026, 11, 1 ) ;
#175 = PERSON_AND_ORGANIZATION ( #138, #212 ) ;
#176 = CC_DESIGN_PERSON_AND_ORGANIZATION_ASSIGNMENT ( #175, #154, ( #116 ) ) ;
#177 = CALENDAR_DATE ( 2026, 11, 1 ) ;
#178 = PRODUCT_DEFINITION_SHAPE ( 'NONE', 'NONE',  #101 ) ;
#179 = ORIENTED_EDGE ( 'NONE', *, *, #54, .T. ) ;
#180 = VERTEX_POINT ( 'NONE', #130 ) ;
#181 = VERTEX_POINT ( 'NONE', #172 ) ;
#182 = EDGE_CURVE ( 'NONE', #180, #149, #152, .T. ) ;
#183 = CARTESIAN_POINT ( 'NONE',  ( 4.000000000000000000, 4.898587196589412829E-16, 457.1999999999999318 ) ) ;
#184 = CIRCLE ( 'NONE', #121, 4.000000000000000000 ) ;
#185 = ORIENTED_EDGE ( 'NONE', *, *, #167, .F. ) ;
#186 = DIRECTION ( 'NONE',  ( -1.000000000000000000, 0.000000000000000000, 0.000000000000000000 ) ) ;
#187 = ORIENTED_EDGE ( 'NONE', *, *, #140, .F. ) ;
#188 = DIRECTION ( 'NONE',  ( -0.000000000000000000, -0.000000000000000000, -1.000000000000000000 ) ) ;
#189 = DIRECTION ( 'NONE',  ( 1.000000000000000000, 0.000000000000000000, -0.000000000000000000 ) ) ;
#190 = SHAPE_DEFINITION_REPRESENTATION ( #178, #151 ) ;
#191 = PERSON_AND_ORGANIZATION_ROLE ( 'creator' ) ;
#192 = EDGE_CURVE ( 'NONE', #233, #235, #143, .T. ) ;
#193 = DATE_AND_TIME ( #96, #66 ) ;
#194 = APPLICATION_PROTOCOL_DEFINITION ( 'international standard', 'config_control_design', 1994, #1 ) ;
#195 = APPROVAL_ROLE ( '' ) ;
#196 = EDGE_LOOP ( 'NONE', ( #92, #201 ) ) ;
#197 = EDGE_CURVE ( 'NONE', #149, #235, #62, .T. ) ;
#198 = CARTESIAN_POINT ( 'NONE',  ( -4.000000000000000000, 0.000000000000000000, -457.1999999999999318 ) ) ;
#199 = EDGE_LOOP ( 'NONE', ( #185, #146, #179, #215 ) ) ;
#200 = DIRECTION ( 'NONE',  ( 1.000000000000000000, 0.000000000000000000, 0.000000000000000000 ) ) ;
#201 = ORIENTED_EDGE ( 'NONE', *, *, #182, .F. ) ;
#202 = DIRECTION ( 'NONE',  ( 1.000000000000000000, 0.000000000000000000, 0.000000000000000000 ) ) ;
#203 = CYLINDRICAL_SURFACE ( 'NONE', #52, 6.000000000000000888 ) ;
#204 = APPLICATION_CONTEXT ( 'configuration controlled 3d designs of mechanical parts and assemblies' ) ;
#205 = DIRECTION ( 'NONE',  ( 1.000000000000000000, 0.000000000000000000, 0.000000000000000000 ) ) ;
#206 = CARTESIAN_POINT ( 'NONE',  ( 0.000000000000000000, 0.000000000000000000, 0.000000000000000000 ) ) ;
#207 = CC_DESIGN_DATE_AND_TIME_ASSIGNMENT ( #209, #58, ( #122 ) ) ;
#208 = EDGE_CURVE ( 'NONE', #83, #181, #234, .T. ) ;
#209 = DATE_AND_TIME ( #173, #60 ) ;
#210 = MECHANICAL_CONTEXT ( 'NONE', #204, 'mechanical' ) ;
#211 = COORDINATED_UNIVERSAL_TIME_OFFSET ( 6, 0, .BEHIND. ) ;
#212 = ORGANIZATION ( 'UNSPECIFIED', 'UNSPECIFIED', '' ) ;
#213 = APPROVAL ( #28, 'UNSPECIFIED' ) ;
#214 = CARTESIAN_POINT ( 'NONE',  ( 0.000000000000000000, 0.000000000000000000, 457.1999999999999318 ) ) ;
#215 = ORIENTED_EDGE ( 'NONE', *, *, #225, .T. ) ;
#216 = ORIENTED_EDGE ( 'NONE', *, *, #117, .F. ) ;
#217 = ORIENTED_EDGE ( 'NONE', *, *, #54, .F. ) ;
#218 = DIRECTION ( 'NONE',  ( 1.000000000000000000, 0.000000000000000000, 0.000000000000000000 ) ) ;
#219 = DIRECTION ( 'NONE',  ( 1.000000000000000000, 0.000000000000000000, 0.000000000000000000 ) ) ;
#220 = DIRECTION ( 'NONE',  ( 1.000000000000000000, 0.000000000000000000, 0.000000000000000000 ) ) ;
#221 = AXIS2_PLACEMENT_3D ( 'NONE', #91, #153, #205 ) ;
#222 = DIRECTION ( 'NONE',  ( -1.000000000000000000, 0.000000000000000000, 0.000000000000000000 ) ) ;
#223 = DIRECTION ( 'NONE',  ( 1.000000000000000000, 0.000000000000000000, 0.000000000000000000 ) ) ;
#224 = DIRECTION ( 'NONE',  ( 1.000000000000000000, 0.000000000000000000, 0.000000000000000000 ) ) ;
#225 = EDGE_CURVE ( 'NONE', #181, #83, #110, .T. ) ;
#226 = PERSON_AND_ORGANIZATION_ROLE ( 'design_supplier' ) ;
#227 = APPROVAL_ROLE ( '' ) ;
#228 = COORDINATED_UNIVERSAL_TIME_OFFSET ( 6, 0, .BEHIND. ) ;
#229 = CC_DESIGN_APPROVAL ( #213, ( #116 ) ) ;
#230 = DIRECTION ( 'NONE',  ( -0.000000000000000000, -0.000000000000000000, -1.000000000000000000 ) ) ;
#231 = EDGE_CURVE ( 'NONE', #180, #233, #95, .T. ) ;
#232 = PLANE ( 'NONE',  #120 ) ;
#233 = VERTEX_POINT ( 'NONE', #47 ) ;
#234 = CIRCLE ( 'NONE', #79, 6.000000000000000888 ) ;
#235 = VERTEX_POINT ( 'NONE', #198 ) ;
#236 = AXIS2_PLACEMENT_3D ( 'NONE', #20, #50, #245 ) ;
#237 = DIRECTION ( 'NONE',  ( 0.000000000000000000, 0.000000000000000000, 1.000000000000000000 ) ) ;
#238 = ORIENTED_EDGE ( 'NONE', *, *, #197, .F. ) ;
#239 = CARTESIAN_POINT ( 'NONE',  ( -4.000000000000000000, 0.000000000000000000, 457.1999999999999318 ) ) ;
#240 = VERTEX_POINT ( 'NONE', #22 ) ;
#241 = DIRECTION ( 'NONE',  ( -0.000000000000000000, -0.000000000000000000, -1.000000000000000000 ) ) ;
#242 = CC_DESIGN_DATE_AND_TIME_ASSIGNMENT ( #193, #12, ( #101 ) ) ;
#243 = EDGE_LOOP ( 'NONE', ( #43, #84, #159, #70 ) ) ;
#244 = FACE_BOUND ( 'NONE', #196, .T. ) ;
#245 = DIRECTION ( 'NONE',  ( -1.000000000000000000, 0.000000000000000000, 0.000000000000000000 ) ) ;
#246 = SECURITY_CLASSIFICATION_LEVEL ( 'unclassified' ) ;
#247 =( GEOMETRIC_REPRESENTATION_CONTEXT ( 3 ) GLOBAL_UNCERTAINTY_ASSIGNED_CONTEXT ( ( #26 ) ) GLOBAL_UNIT_ASSIGNED_CONTEXT ( ( #145, #166, #30 ) ) REPRESENTATION_CONTEXT ( 'NONE', 'WORKASPACE' ) );
#248 = PRODUCT_RELATED_PRODUCT_CATEGORY ( 'detail', '', ( #88 ) ) ;
#249 = ADVANCED_FACE ( 'NONE', ( #40, #244 ), #8, .T. ) ;
ENDSEC;
END-ISO-10303-21;
