ISO-10303-21;
HEADER;
FILE_DESCRIPTION (( 'STEP AP203' ),
    '1' );
FILE_NAME ('63195K75_Swivel Joint.STEP',
    '2026-01-05T19:23:32',
    ( 'McMaster Carr Supply' ),
    ( 'McMaster Carr Supply' ),
    'SwSTEP 2.0',
    'SolidWorks 2024',
    '' );
FILE_SCHEMA (( 'CONFIG_CONTROL_DESIGN' ));
ENDSEC;

DATA;
#1 = CIRCLE ( 'NONE', #725, 0.5587800000000000544 ) ;
#2 = CIRCLE ( 'NONE', #529, 0.5937500000000000000 ) ;
#3 = DIRECTION ( 'NONE',  ( 0.000000000000000000, -0.000000000000000000, 1.000000000000000000 ) ) ;
#4 = COORDINATED_UNIVERSAL_TIME_OFFSET ( 6, 0, .BEHIND. ) ;
#5 = VERTEX_POINT ( 'NONE', #587 ) ;
#6 = CARTESIAN_POINT ( 'NONE',  ( -0.005022377933358770224, 0.5937500000000002220, 0.04641743891356112095 ) ) ;
#7 = ORIENTED_EDGE ( 'NONE', *, *, #448, .T. ) ;
#8 = DIRECTION ( 'NONE',  ( 0.000000000000000000, 0.000000000000000000, 1.000000000000000000 ) ) ;
#9 = APPROVAL_STATUS ( 'not_yet_approved' ) ;
#10 = ORIENTED_EDGE ( 'NONE', *, *, #357, .F. ) ;
#11 = DIRECTION ( 'NONE',  ( -0.000000000000000000, -0.000000000000000000, 1.000000000000000000 ) ) ;
#12 = APPROVAL ( #940, 'UNSPECIFIED' ) ;
#13 = FACE_OUTER_BOUND ( 'NONE', #528, .T. ) ;
#14 = CALENDAR_DATE ( 2026, 5, 1 ) ;
#15 = DIRECTION ( 'NONE',  ( -1.000000000000000000, 0.000000000000000000, 0.000000000000000000 ) ) ;
#16 = EDGE_CURVE ( 'NONE', #703, #720, #251, .T. ) ;
#17 = ORIENTED_EDGE ( 'NONE', *, *, #265, .F. ) ;
#18 = DIRECTION ( 'NONE',  ( 1.000000000000000000, 0.000000000000000000, 0.000000000000000000 ) ) ;
#19 = AXIS2_PLACEMENT_3D ( 'NONE', #611, #268, #402 ) ;
#20 = AXIS2_PLACEMENT_3D ( 'NONE', #640, #68, #574 ) ;
#21 = DIRECTION ( 'NONE',  ( -0.8660254037844397068, 0.000000000000000000, -0.4999999999999979461 ) ) ;
#22 = VERTEX_POINT ( 'NONE', #612 ) ;
#23 = LINE ( 'NONE', #890, #108 ) ;
#24 = EDGE_CURVE ( 'NONE', #576, #878, #889, .T. ) ;
#25 = DIRECTION ( 'NONE',  ( 1.000000000000000000, 0.000000000000000000, 0.000000000000000000 ) ) ;
#26 = PERSON_AND_ORGANIZATION ( #148, #417 ) ;
#27 = CARTESIAN_POINT ( 'NONE',  ( 0.4200768329722551764, 0.000000000000000000, 0.2500000000000000000 ) ) ;
#28 = VERTEX_POINT ( 'NONE', #459 ) ;
#29 = SPHERICAL_SURFACE ( 'NONE', #622, 0.4888399999999999412 ) ;
#30 = DIRECTION ( 'NONE',  ( -1.000000000000000000, 0.000000000000000000, 0.000000000000000000 ) ) ;
#31 = DIRECTION ( 'NONE',  ( 0.000000000000000000, 0.000000000000000000, 1.000000000000000000 ) ) ;
#32 = CARTESIAN_POINT ( 'NONE',  ( 0.000000000000000000, 0.000000000000000000, -0.02622750000000000081 ) ) ;
#33 = CONICAL_SURFACE ( 'NONE', #555, 0.5937500000000000000, 1.047197551196600074 ) ;
#34 = CIRCLE ( 'NONE', #774, 0.5587800000000000544 ) ;
#35 = DIRECTION ( 'NONE',  ( 1.000000000000000000, 0.000000000000000000, 0.000000000000000000 ) ) ;
#36 = DIRECTION ( 'NONE',  ( -1.224646799147353207E-16, -1.330520375674511246E-31, -1.000000000000000000 ) ) ;
#37 = ORIENTED_EDGE ( 'NONE', *, *, #337, .F. ) ;
#38 = EDGE_CURVE ( 'NONE', #737, #599, #394, .T. ) ;
#39 = FACE_BOUND ( 'NONE', #571, .T. ) ;
#40 = ORIENTED_EDGE ( 'NONE', *, *, #24, .F. ) ;
#41 = CARTESIAN_POINT ( 'NONE',  ( -5.273128263894932557E-16, 0.4840000000000000968, 0.000000000000000000 ) ) ;
#42 = ORIENTED_EDGE ( 'NONE', *, *, #897, .F. ) ;
#43 = ADVANCED_FACE ( 'NONE', ( #593 ), #461, .T. ) ;
#44 = DIRECTION ( 'NONE',  ( -0.000000000000000000, -0.000000000000000000, 1.000000000000000000 ) ) ;
#45 = AXIS2_PLACEMENT_3D ( 'NONE', #397, #681, #35 ) ;
#46 = VECTOR ( 'NONE', #328, 39.37007874015748143 ) ;
#47 = CIRCLE ( 'NONE', #292, 0.4200768329722551764 ) ;
#48 = B_SPLINE_CURVE_WITH_KNOTS ( 'NONE', 3,
 ( #493, #6, #62, #522, #633, #226, #377, #299 ),
 .UNSPECIFIED., .F., .F.,
 ( 4, 2, 2, 4 ),
 ( 0.001622219153051156432, 0.001999677762583378440, 0.002377136372115600232, 0.003132053591180043381 ),
 .UNSPECIFIED. ) ;
#49 = CARTESIAN_POINT ( 'NONE',  ( 0.000000000000000000, 0.000000000000000000, -0.3125000000000000000 ) ) ;
#50 = EDGE_LOOP ( 'NONE', ( #882, #69, #504, #58 ) ) ;
#51 = DIRECTION ( 'NONE',  ( -0.000000000000000000, -0.000000000000000000, -1.000000000000000000 ) ) ;
#52 = ORIENTED_EDGE ( 'NONE', *, *, #257, .T. ) ;
#53 = DIRECTION ( 'NONE',  ( 0.000000000000000000, 0.000000000000000000, -1.000000000000000000 ) ) ;
#54 = ORIENTED_EDGE ( 'NONE', *, *, #237, .F. ) ;
#55 = CARTESIAN_POINT ( 'NONE',  ( -0.04358964278415399657, 0.5571024776676054557, -0.01849986528639726777 ) ) ;
#56 = EDGE_CURVE ( 'NONE', #344, #28, #103, .T. ) ;
#57 = DIRECTION ( 'NONE',  ( 0.000000000000000000, 0.000000000000000000, 1.000000000000000000 ) ) ;
#58 = ORIENTED_EDGE ( 'NONE', *, *, #489, .F. ) ;
#59 = DIRECTION ( 'NONE',  ( 1.000000000000000000, 0.000000000000000000, 0.000000000000000000 ) ) ;
#60 = EDGE_LOOP ( 'NONE', ( #560, #871, #125, #231, #800, #273, #17 ) ) ;
#61 = AXIS2_PLACEMENT_3D ( 'NONE', #452, #165, #98 ) ;
#62 = CARTESIAN_POINT ( 'NONE',  ( -0.009929716075620964241, 0.5921918956592127081, 0.04555708325937700420 ) ) ;
#63 = ORIENTED_EDGE ( 'NONE', *, *, #811, .F. ) ;
#64 = DIRECTION ( 'NONE',  ( 1.000000000000000000, 0.000000000000000000, 0.000000000000000000 ) ) ;
#65 = EDGE_LOOP ( 'NONE', ( #365, #686, #333, #209 ) ) ;
#66 = CC_DESIGN_APPROVAL ( #12, ( #551 ) ) ;
#67 = EDGE_CURVE ( 'NONE', #711, #554, #608, .T. ) ;
#68 = DIRECTION ( 'NONE',  ( -0.000000000000000000, -0.000000000000000000, -1.000000000000000000 ) ) ;
#69 = ORIENTED_EDGE ( 'NONE', *, *, #850, .F. ) ;
#70 = ADVANCED_FACE ( 'NONE', ( #172 ), #248, .T. ) ;
#71 = CARTESIAN_POINT ( 'NONE',  ( 0.04571317779841466145, 0.5569087106912792295, -0.009305417290285257492 ) ) ;
#72 =( NAMED_UNIT ( * ) SI_UNIT ( $, .STERADIAN. ) SOLID_ANGLE_UNIT ( ) );
#73 = ORIENTED_EDGE ( 'NONE', *, *, #315, .F. ) ;
#74 = EDGE_LOOP ( 'NONE', ( #301, #262 ) ) ;
#75 = AXIS2_PLACEMENT_3D ( 'NONE', #595, #783, #15 ) ;
#77 = AXIS2_PLACEMENT_3D ( 'NONE', #458, #755, #303 ) ;
#76 = DIMENSIONAL_EXPONENTS ( 1.000000000000000000, 0.000000000000000000, 0.000000000000000000, 0.000000000000000000, 0.000000000000000000, 0.000000000000000000, 0.000000000000000000 ) ;
#78 = CARTESIAN_POINT ( 'NONE',  ( 0.000000000000000000, 0.4866312433092492840, 0.000000000000000000 ) ) ;
#79 = CALENDAR_DATE ( 2026, 5, 1 ) ;
#80 = ORIENTED_EDGE ( 'NONE', *, *, #433, .T. ) ;
#81 = CARTESIAN_POINT ( 'NONE',  ( 0.000000000000000000, 0.4866312433092492840, 0.000000000000000000 ) ) ;
#82 = CARTESIAN_POINT ( 'NONE',  ( -0.01828361276553939346, 0.5873650742030813721, -0.04288666655302150743 ) ) ;
#83 = ORIENTED_EDGE ( 'NONE', *, *, #573, .F. ) ;
#84 = COORDINATED_UNIVERSAL_TIME_OFFSET ( 6, 0, .BEHIND. ) ;
#85 = DIRECTION ( 'NONE',  ( 1.000000000000000000, 0.000000000000000000, 0.000000000000000000 ) ) ;
#86 = EDGE_CURVE ( 'NONE', #5, #564, #260, .T. ) ;
#87 = CARTESIAN_POINT ( 'NONE',  ( 0.000000000000000000, 0.000000000000000000, 0.2500000000000000000 ) ) ;
#88 = DIRECTION ( 'NONE',  ( -0.000000000000000000, -0.000000000000000000, 1.000000000000000000 ) ) ;
#89 = CARTESIAN_POINT ( 'NONE',  ( 0.3125000000000000000, 0.000000000000000000, 0.3125000000000000000 ) ) ;
#90 = EDGE_LOOP ( 'NONE', ( #614, #646, #267, #708, #216, #7, #438 ) ) ;
#91 = ADVANCED_FACE ( 'NONE', ( #828 ), #428, .T. ) ;
#92 = FACE_BOUND ( 'NONE', #351, .T. ) ;
#93 = CARTESIAN_POINT ( 'NONE',  ( -0.5587800000000000544, 7.057210877106496102E-17, 0.02622750000000000081 ) ) ;
#94 = AXIS2_PLACEMENT_3D ( 'NONE', #105, #659, #586 ) ;
#95 = CIRCLE ( 'NONE', #620, 0.3125000000000000000 ) ;
#96 = VECTOR ( 'NONE', #786, 39.37007874015748143 ) ;
#97 = FACE_OUTER_BOUND ( 'NONE', #833, .T. ) ;
#98 = DIRECTION ( 'NONE',  ( 1.000000000000000000, 0.000000000000000000, 0.000000000000000000 ) ) ;
#99 = DIRECTION ( 'NONE',  ( -0.000000000000000000, 0.000000000000000000, -1.000000000000000000 ) ) ;
#100 = CC_DESIGN_PERSON_AND_ORGANIZATION_ASSIGNMENT ( #26, #827, ( #575 ) ) ;
#101 = DIRECTION ( 'NONE',  ( 0.000000000000000000, 0.000000000000000000, -1.000000000000000000 ) ) ;
#102 = CARTESIAN_POINT ( 'NONE',  ( 0.000000000000000000, 0.000000000000000000, -0.04641743891356109319 ) ) ;
#103 = LINE ( 'NONE', #521, #421 ) ;
#104 = VERTEX_POINT ( 'NONE', #27 ) ;
#105 = CARTESIAN_POINT ( 'NONE',  ( 0.000000000000000000, 0.5937500000000000000, 0.000000000000000000 ) ) ;
#106 = DIRECTION ( 'NONE',  ( -0.000000000000000000, -0.000000000000000000, -1.000000000000000000 ) ) ;
#107 = AXIS2_PLACEMENT_3D ( 'NONE', #678, #451, #604 ) ;
#108 = VECTOR ( 'NONE', #161, 39.37007874015748143 ) ;
#109 = B_SPLINE_CURVE_WITH_KNOTS ( 'NONE', 3,
 ( #206, #375, #204, #71, #217, #136, #717, #284 ),
 .UNSPECIFIED., .F., .F.,
 ( 4, 2, 2, 4 ),
 ( 0.000000000000000000, 0.0003520569915793875606, 0.0007041139831587751212, 0.001408227966317550242 ),
 .UNSPECIFIED. ) ;
#110 = EDGE_CURVE ( 'NONE', #282, #286, #919, .T. ) ;
#111 = EDGE_LOOP ( 'NONE', ( #854, #372, #369, #279 ) ) ;
#112 = CARTESIAN_POINT ( 'NONE',  ( 4.680399213107614424E-16, -0.4840000000000000968, 0.000000000000000000 ) ) ;
#113 = DIRECTION ( 'NONE',  ( -0.000000000000000000, -0.000000000000000000, 1.000000000000000000 ) ) ;
#114 = ADVANCED_FACE ( 'NONE', ( #97 ), #316, .T. ) ;
#115 = DIRECTION ( 'NONE',  ( -0.000000000000000000, 0.000000000000000000, -1.000000000000000000 ) ) ;
#116 = DIRECTION ( 'NONE',  ( -0.000000000000000000, -0.000000000000000000, 1.000000000000000000 ) ) ;
#117 = CARTESIAN_POINT ( 'NONE',  ( 0.000000000000000000, 0.000000000000000000, -0.02622750000000000081 ) ) ;
#118 = LINE ( 'NONE', #412, #469 ) ;
#119 = AXIS2_PLACEMENT_3D ( 'NONE', #87, #741, #349 ) ;
#120 = AXIS2_PLACEMENT_3D ( 'NONE', #456, #244, #18 ) ;
#121 = CARTESIAN_POINT ( 'NONE',  ( -0.3695940340427589788, 4.526221507744226839E-17, -0.3125000000000000000 ) ) ;
#122 = ADVANCED_FACE ( 'NONE', ( #899 ), #307, .T. ) ;
#123 = DIRECTION ( 'NONE',  ( -1.000000000000000000, 0.000000000000000000, 0.000000000000000000 ) ) ;
#124 = CARTESIAN_POINT ( 'NONE',  ( 0.000000000000000000, 0.000000000000000000, 0.000000000000000000 ) ) ;
#125 = ORIENTED_EDGE ( 'NONE', *, *, #315, .T. ) ;
#126 = DIRECTION ( 'NONE',  ( 0.8660254037844397068, 1.060575238724908024E-16, -0.4999999999999979461 ) ) ;
#127 = ORIENTED_EDGE ( 'NONE', *, *, #399, .F. ) ;
#128 = CARTESIAN_POINT ( 'NONE',  ( 0.000000000000000000, 0.000000000000000000, 0.3125000000000000000 ) ) ;
#129 = ORIENTED_EDGE ( 'NONE', *, *, #879, .F. ) ;
#130 = CARTESIAN_POINT ( 'NONE',  ( 5.684496799011038759E-18, 0.5937500000000000000, -0.04641743891356109319 ) ) ;
#131 = PERSON_AND_ORGANIZATION_ROLE ( 'creator' ) ;
#132 = AXIS2_PLACEMENT_3D ( 'NONE', #124, #583, #750 ) ;
#133 = EDGE_CURVE ( 'NONE', #711, #599, #674, .T. ) ;
#134 = AXIS2_PLACEMENT_3D ( 'NONE', #671, #241, #739 ) ;
#135 = CIRCLE ( 'NONE', #455, 0.5937500000000000000 ) ;
#136 = CARTESIAN_POINT ( 'NONE',  ( 0.04642607411278319024, 0.5568480116853347095, 0.009238020368756968970 ) ) ;
#137 = DIRECTION ( 'NONE',  ( -0.000000000000000000, -0.000000000000000000, 1.000000000000000000 ) ) ;
#138 = EDGE_LOOP ( 'NONE', ( #796, #463, #40, #296 ) ) ;
#139 = EDGE_CURVE ( 'NONE', #632, #856, #667, .T. ) ;
#140 = CARTESIAN_POINT ( 'NONE',  ( -0.03829747875571387628, 0.5574660451731142663, -0.02622749999999839446 ) ) ;
#141 = CYLINDRICAL_SURFACE ( 'NONE', #453, 0.5587800000000000544 ) ;
#142 = ORIENTED_EDGE ( 'NONE', *, *, #628, .T. ) ;
#143 = ORIENTED_EDGE ( 'NONE', *, *, #242, .F. ) ;
#144 = DIRECTION ( 'NONE',  ( -0.000000000000000000, -1.000000000000000000, -0.000000000000000000 ) ) ;
#145 = CLOSED_SHELL ( 'NONE', ( #617, #909, #742, #354, #924, #166, #91, #43, #70, #122, #657, #565, #684, #384, #944, #410, #426, #114, #771, #797, #610, #585, #154 ) ) ;
#146 = DIRECTION ( 'NONE',  ( 1.000000000000000000, 0.000000000000000000, 0.000000000000000000 ) ) ;
#147 = VERTEX_POINT ( 'NONE', #235 ) ;
#148 = PERSON ( 'UNSPECIFIED', 'UNSPECIFIED', 'UNSPECIFIED', ('UNSPECIFIED'), ('UNSPECIFIED'), ('UNSPECIFIED') ) ;
#149 = DIRECTION ( 'NONE',  ( 1.000000000000000000, 0.000000000000000000, 0.000000000000000000 ) ) ;
#150 = ORIENTED_EDGE ( 'NONE', *, *, #672, .T. ) ;
#151 = AXIS2_PLACEMENT_3D ( 'NONE', #490, #929, #692 ) ;
#152 = CIRCLE ( 'NONE', #605, 0.3695940340427589788 ) ;
#153 = CARTESIAN_POINT ( 'NONE',  ( -0.005031700350096716436, 0.5937500000000000000, -0.04641743891356112095 ) ) ;
#154 = ADVANCED_FACE ( 'NONE', ( #613 ), #907, .F. ) ;
#155 = CALENDAR_DATE ( 2026, 5, 1 ) ;
#156 = FACE_OUTER_BOUND ( 'NONE', #937, .T. ) ;
#157 = CARTESIAN_POINT ( 'NONE',  ( 0.000000000000000000, 0.000000000000000000, -0.2500000000000000000 ) ) ;
#158 = SECURITY_CLASSIFICATION_LEVEL ( 'unclassified' ) ;
#159 = DIRECTION ( 'NONE',  ( 0.000000000000000000, 0.000000000000000000, 1.000000000000000000 ) ) ;
#160 = ORIENTED_EDGE ( 'NONE', *, *, #527, .T. ) ;
#161 = DIRECTION ( 'NONE',  ( -0.000000000000000000, -0.000000000000000000, 1.000000000000000000 ) ) ;
#162 = CARTESIAN_POINT ( 'NONE',  ( 0.03829747875571152399, 0.5574660451731171529, 0.02622750000000000081 ) ) ;
#163 = APPROVAL_DATE_TIME ( #756, #325 ) ;
#164 = CARTESIAN_POINT ( 'NONE',  ( -0.5587800000000000544, 0.000000000000000000, -0.02622750000000000081 ) ) ;
#165 = DIRECTION ( 'NONE',  ( -0.000000000000000000, -0.000000000000000000, 1.000000000000000000 ) ) ;
#166 = ADVANCED_FACE ( 'NONE', ( #390 ), #724, .T. ) ;
#167 = PRODUCT_DEFINITION_SHAPE ( 'NONE', 'NONE',  #551 ) ;
#168 = FACE_OUTER_BOUND ( 'NONE', #60, .T. ) ;
#169 = AXIS2_PLACEMENT_3D ( 'NONE', #186, #847, #192 ) ;
#170 = AXIS2_PLACEMENT_3D ( 'NONE', #683, #664, #310 ) ;
#171 = AXIS2_PLACEMENT_3D ( 'NONE', #442, #876, #506 ) ;
#172 = FACE_OUTER_BOUND ( 'NONE', #492, .T. ) ;
#173 = VERTEX_POINT ( 'NONE', #89 ) ;
#174 = CARTESIAN_POINT ( 'NONE',  ( 0.009984605300218310844, 0.5921604751921260013, 0.04553970049077066956 ) ) ;
#175 = CARTESIAN_POINT ( 'NONE',  ( 0.000000000000000000, 0.000000000000000000, 0.2500000000000000000 ) ) ;
#176 = ORIENTED_EDGE ( 'NONE', *, *, #139, .F. ) ;
#177 = ORIENTED_EDGE ( 'NONE', *, *, #868, .F. ) ;
#178 = DIRECTION ( 'NONE',  ( -1.000000000000000000, 0.000000000000000000, 0.000000000000000000 ) ) ;
#179 = CARTESIAN_POINT ( 'NONE',  ( 0.000000000000000000, 0.000000000000000000, -0.3125000000000000000 ) ) ;
#180 = AXIS2_PLACEMENT_3D ( 'NONE', #464, #785, #523 ) ;
#181 = CARTESIAN_POINT ( 'NONE',  ( -0.5587800000000000544, 6.843081384275581689E-17, -0.02622750000000000081 ) ) ;
#182 = DIRECTION ( 'NONE',  ( -0.000000000000000000, -0.000000000000000000, -1.000000000000000000 ) ) ;
#183 = AXIS2_PLACEMENT_3D ( 'NONE', #822, #36, #457 ) ;
#184 = EDGE_CURVE ( 'NONE', #409, #505, #634, .T. ) ;
#185 = ORIENTED_EDGE ( 'NONE', *, *, #661, .T. ) ;
#186 = CARTESIAN_POINT ( 'NONE',  ( 0.000000000000000000, 0.000000000000000000, 0.000000000000000000 ) ) ;
#187 = ORIENTED_EDGE ( 'NONE', *, *, #519, .T. ) ;
#188 = B_SPLINE_CURVE_WITH_KNOTS ( 'NONE', 3,
 ( #140, #294, #723, #884, #579, #223, #82, #510, #153, #130 ),
 .UNSPECIFIED., .F., .F.,
 ( 4, 2, 2, 2, 4 ),
 ( 0.0001095821966681013147, 0.0004877414357638650737, 0.0008659006748596287514, 0.001244059913955392538, 0.001622219153051156215 ),
 .UNSPECIFIED. ) ;
#189 = EDGE_CURVE ( 'NONE', #599, #878, #323, .T. ) ;
#190 = DIRECTION ( 'NONE',  ( 1.000000000000000000, 0.000000000000000000, 0.000000000000000000 ) ) ;
#191 = LOCAL_TIME ( 13, 23, 32.00000000000000000, #4 ) ;
#192 = DIRECTION ( 'NONE',  ( -1.000000000000000000, -1.086452335972193271E-15, 0.000000000000000000 ) ) ;
#193 = CARTESIAN_POINT ( 'NONE',  ( 5.011685428518873642E-16, -0.4888399999999999412, 0.000000000000000000 ) ) ;
#194 = PRODUCT_RELATED_PRODUCT_CATEGORY ( 'detail', '', ( #468 ) ) ;
#195 = CARTESIAN_POINT ( 'NONE',  ( 0.000000000000000000, 0.000000000000000000, 0.2179999999999998328 ) ) ;
#196 = DIRECTION ( 'NONE',  ( -0.000000000000000000, 0.000000000000000000, -1.000000000000000000 ) ) ;
#197 = VECTOR ( 'NONE', #484, 39.37007874015748143 ) ;
#198 = CIRCLE ( 'NONE', #568, 0.5937500000000000000 ) ;
#199 = CARTESIAN_POINT ( 'NONE',  ( 0.000000000000000000, 0.000000000000000000, 0.3125000000000000000 ) ) ;
#200 = VERTEX_POINT ( 'NONE', #746 ) ;
#201 = CARTESIAN_POINT ( 'NONE',  ( -0.04295187835381066022, 0.5571284796293687336, 0.01820498726325452815 ) ) ;
#202 = ORIENTED_EDGE ( 'NONE', *, *, #726, .F. ) ;
#203 = DIRECTION ( 'NONE',  ( 1.000000000000000000, 0.000000000000000000, 0.000000000000000000 ) ) ;
#204 = CARTESIAN_POINT ( 'NONE',  ( 0.04295187835381084757, 0.5571284796293687336, -0.01820498726325413957 ) ) ;
#205 = EDGE_LOOP ( 'NONE', ( #143, #281 ) ) ;
#206 = CARTESIAN_POINT ( 'NONE',  ( 0.03829747875571152399, 0.5574660451731171529, -0.02622750000000000081 ) ) ;
#207 = EDGE_LOOP ( 'NONE', ( #266, #508 ) ) ;
#208 = CYLINDRICAL_SURFACE ( 'NONE', #839, 0.5937500000000000000 ) ;
#209 = ORIENTED_EDGE ( 'NONE', *, *, #237, .T. ) ;
#210 = EDGE_CURVE ( 'NONE', #22, #147, #95, .T. ) ;
#211 = AXIS2_PLACEMENT_3D ( 'NONE', #835, #916, #705 ) ;
#212 = CIRCLE ( 'NONE', #151, 0.3125000000000000000 ) ;
#213 = CIRCLE ( 'NONE', #171, 0.5937500000000000000 ) ;
#214 = CARTESIAN_POINT ( 'NONE',  ( -0.4200768329722551764, 5.144457488954296226E-17, -0.2500000000000000000 ) ) ;
#215 = APPLICATION_PROTOCOL_DEFINITION ( 'international standard', 'config_control_design', 1994, #894 ) ;
#216 = ORIENTED_EDGE ( 'NONE', *, *, #359, .T. ) ;
#217 = CARTESIAN_POINT ( 'NONE',  ( 0.04641309103809405923, 0.5568490939196621969, -0.004683940779410641214 ) ) ;
#218 = DATE_AND_TIME ( #14, #191 ) ;
#219 = VERTEX_POINT ( 'NONE', #400 ) ;
#220 = ORIENTED_EDGE ( 'NONE', *, *, #494, .F. ) ;
#221 = CARTESIAN_POINT ( 'NONE',  ( 0.000000000000000000, 0.000000000000000000, -0.4840000000000000968 ) ) ;
#222 = CC_DESIGN_PERSON_AND_ORGANIZATION_ASSIGNMENT ( #358, #131, ( #575 ) ) ;
#223 = CARTESIAN_POINT ( 'NONE',  ( -0.02184803554235860423, 0.5841618113385157463, -0.04111247673948142251 ) ) ;
#224 = PERSON_AND_ORGANIZATION_ROLE ( 'creator' ) ;
#225 = DESIGN_CONTEXT ( 'detailed design', #894, 'design' ) ;
#226 = CARTESIAN_POINT ( 'NONE',  ( -0.03095690805368993270, 0.5737420559972812306, 0.03532731474277531203 ) ) ;
#227 = VECTOR ( 'NONE', #832, 39.37007874015748854 ) ;
#228 = CIRCLE ( 'NONE', #764, 0.4840000000000000968 ) ;
#229 = CARTESIAN_POINT ( 'NONE',  ( 0.02793324358304337049, 0.5771988600170997463, 0.03724656096399948935 ) ) ;
#230 = PERSON_AND_ORGANIZATION ( #148, #417 ) ;
#231 = ORIENTED_EDGE ( 'NONE', *, *, #473, .T. ) ;
#232 = DIRECTION ( 'NONE',  ( -1.224646799147353207E-16, -1.259251607947974928E-31, -1.000000000000000000 ) ) ;
#233 = CARTESIAN_POINT ( 'NONE',  ( 0.01828361276553832140, 0.5873650742030821492, 0.04288666655302193070 ) ) ;
#234 = SHAPE_DEFINITION_REPRESENTATION ( #167, #477 ) ;
#235 = CARTESIAN_POINT ( 'NONE',  ( 0.3125000000000000000, 0.000000000000000000, -0.3125000000000000000 ) ) ;
#236 = EDGE_LOOP ( 'NONE', ( #380, #415 ) ) ;
#237 = EDGE_CURVE ( 'NONE', #878, #720, #763, .T. ) ;
#238 = FACE_OUTER_BOUND ( 'NONE', #794, .T. ) ;
#239 = EDGE_LOOP ( 'NONE', ( #361, #150, #865, #638 ) ) ;
#240 = DIRECTION ( 'NONE',  ( -0.000000000000000000, 0.000000000000000000, -1.000000000000000000 ) ) ;
#241 = DIRECTION ( 'NONE',  ( -0.000000000000000000, 0.000000000000000000, -1.000000000000000000 ) ) ;
#242 = EDGE_CURVE ( 'NONE', #173, #819, #212, .T. ) ;
#243 = ORIENTED_EDGE ( 'NONE', *, *, #257, .F. ) ;
#244 = DIRECTION ( 'NONE',  ( -0.000000000000000000, -0.000000000000000000, -1.000000000000000000 ) ) ;
#245 = AXIS2_PLACEMENT_3D ( 'NONE', #49, #115, #487 ) ;
#246 = AXIS2_PLACEMENT_3D ( 'NONE', #677, #736, #318 ) ;
#247 = DATE_AND_TIME ( #732, #491 ) ;
#248 = CYLINDRICAL_SURFACE ( 'NONE', #570, 0.5587800000000000544 ) ;
#249 = CARTESIAN_POINT ( 'NONE',  ( 0.03671315509822883211, 0.5615913174603357483, 0.02854093443388101142 ) ) ;
#250 = LOCAL_TIME ( 13, 23, 32.00000000000000000, #787 ) ;
#251 = LINE ( 'NONE', #324, #270 ) ;
#252 = CARTESIAN_POINT ( 'NONE',  ( 0.000000000000000000, 0.000000000000000000, 0.2500000000000000000 ) ) ;
#253 = DIRECTION ( 'NONE',  ( 0.000000000000000000, 0.000000000000000000, 1.000000000000000000 ) ) ;
#254 = EDGE_CURVE ( 'NONE', #564, #703, #704, .T. ) ;
#255 = CARTESIAN_POINT ( 'NONE',  ( -0.5937500000000000000, 0.000000000000000000, 0.2500000000000000000 ) ) ;
#256 = VERTEX_POINT ( 'NONE', #481 ) ;
#257 = EDGE_CURVE ( 'NONE', #711, #941, #748, .T. ) ;
#258 = DIRECTION ( 'NONE',  ( 0.8660254037844397068, 0.000000000000000000, 0.4999999999999979461 ) ) ;
#259 = DIRECTION ( 'NONE',  ( 0.000000000000000000, -1.000000000000000000, 0.000000000000000000 ) ) ;
#260 = CIRCLE ( 'NONE', #588, 0.5617500000000000826 ) ;
#261 = AXIS2_PLACEMENT_3D ( 'NONE', #798, #144, #654 ) ;
#262 = ORIENTED_EDGE ( 'NONE', *, *, #689, .T. ) ;
#263 = DIRECTION ( 'NONE',  ( -0.000000000000000000, -0.000000000000000000, 1.000000000000000000 ) ) ;
#264 = FACE_OUTER_BOUND ( 'NONE', #239, .T. ) ;
#265 = EDGE_CURVE ( 'NONE', #737, #271, #694, .T. ) ;
#266 = ORIENTED_EDGE ( 'NONE', *, *, #600, .F. ) ;
#267 = ORIENTED_EDGE ( 'NONE', *, *, #433, .F. ) ;
#268 = DIRECTION ( 'NONE',  ( -0.000000000000000000, -0.000000000000000000, 1.000000000000000000 ) ) ;
#269 = LINE ( 'NONE', #407, #892 ) ;
#270 = VECTOR ( 'NONE', #552, 39.37007874015748143 ) ;
#271 = VERTEX_POINT ( 'NONE', #923 ) ;
#272 = LINE ( 'NONE', #340, #695 ) ;
#273 = ORIENTED_EDGE ( 'NONE', *, *, #501, .F. ) ;
#274 = CARTESIAN_POINT ( 'NONE',  ( 0.5617500000000000826, 6.879453394210257124E-17, 0.2500000000000000000 ) ) ;
#275 = AXIS2_PLACEMENT_3D ( 'NONE', #195, #702, #482 ) ;
#276 = FACE_OUTER_BOUND ( 'NONE', #706, .T. ) ;
#277 = ORIENTED_EDGE ( 'NONE', *, *, #110, .T. ) ;
#278 = CC_DESIGN_PERSON_AND_ORGANIZATION_ASSIGNMENT ( #738, #520, ( #733 ) ) ;
#279 = ORIENTED_EDGE ( 'NONE', *, *, #265, .T. ) ;
#280 = CARTESIAN_POINT ( 'NONE',  ( 0.4200768329722551764, 0.000000000000000000, -0.2500000000000000000 ) ) ;
#281 = ORIENTED_EDGE ( 'NONE', *, *, #845, .F. ) ;
#282 = VERTEX_POINT ( 'NONE', #416 ) ;
#283 = EDGE_CURVE ( 'NONE', #576, #219, #860, .T. ) ;
#284 = CARTESIAN_POINT ( 'NONE',  ( 0.03829747875571152399, 0.5574660451731171529, 0.02622750000000000081 ) ) ;
#285 = CARTESIAN_POINT ( 'NONE',  ( 0.000000000000000000, 0.000000000000000000, 0.000000000000000000 ) ) ;
#286 = VERTEX_POINT ( 'NONE', #193 ) ;
#287 = MANIFOLD_SOLID_BREP ( 'Cut-Extrude3', #145 ) ;
#288 = DIRECTION ( 'NONE',  ( 1.000000000000000000, 0.000000000000000000, -0.000000000000000000 ) ) ;
#289 = ORIENTED_EDGE ( 'NONE', *, *, #399, .T. ) ;
#290 = CIRCLE ( 'NONE', #245, 0.3125000000000000000 ) ;
#291 = AXIS2_PLACEMENT_3D ( 'NONE', #688, #182, #123 ) ;
#292 = AXIS2_PLACEMENT_3D ( 'NONE', #157, #321, #532 ) ;
#293 = VECTOR ( 'NONE', #21, 39.37007874015748854 ) ;
#294 = CARTESIAN_POINT ( 'NONE',  ( -0.03671315509823014356, 0.5615913174603325286, -0.02854093443387933915 ) ) ;
#295 = DATE_TIME_ROLE ( 'creation_date' ) ;
#296 = ORIENTED_EDGE ( 'NONE', *, *, #817, .T. ) ;
#297 = EDGE_LOOP ( 'NONE', ( #10, #176 ) ) ;
#298 = CC_DESIGN_PERSON_AND_ORGANIZATION_ASSIGNMENT ( #230, #364, ( #468 ) ) ;
#299 = CARTESIAN_POINT ( 'NONE',  ( -0.03829747875571152399, 0.5574660451731171529, 0.02622750000000000081 ) ) ;
#300 = CARTESIAN_POINT ( 'NONE',  ( 0.3125000000000000000, 0.000000000000000000, -0.4840000000000000968 ) ) ;
#301 = ORIENTED_EDGE ( 'NONE', *, *, #867, .T. ) ;
#302 = CARTESIAN_POINT ( 'NONE',  ( 0.000000000000000000, 0.000000000000000000, -0.04641743891356109319 ) ) ;
#303 = DIRECTION ( 'NONE',  ( 1.000000000000000000, 0.000000000000000000, 0.000000000000000000 ) ) ;
#304 = APPROVAL_DATE_TIME ( #443, #363 ) ;
#305 = CYLINDRICAL_SURFACE ( 'NONE', #933, 0.3125000000000000000 ) ;
#306 = AXIS2_PLACEMENT_3D ( 'NONE', #829, #385, #178 ) ;
#307 = CONICAL_SURFACE ( 'NONE', #395, 0.5937500000000000000, 1.047197551196600074 ) ;
#308 = CARTESIAN_POINT ( 'NONE',  ( -0.3695940340427589788, 0.000000000000000000, 0.3125000000000000000 ) ) ;
#309 = CC_DESIGN_DATE_AND_TIME_ASSIGNMENT ( #247, #885, ( #733 ) ) ;
#310 = DIRECTION ( 'NONE',  ( 1.000000000000000000, 0.000000000000000000, 0.000000000000000000 ) ) ;
#311 = EDGE_LOOP ( 'NONE', ( #534, #373, #317, #580 ) ) ;
#312 = FACE_BOUND ( 'NONE', #205, .T. ) ;
#313 = ORIENTED_EDGE ( 'NONE', *, *, #543, .F. ) ;
#314 = FACE_OUTER_BOUND ( 'NONE', #467, .T. ) ;
#315 = EDGE_CURVE ( 'NONE', #219, #911, #352, .T. ) ;
#316 = CYLINDRICAL_SURFACE ( 'NONE', #804, 0.5937500000000000000 ) ;
#317 = ORIENTED_EDGE ( 'NONE', *, *, #494, .T. ) ;
#318 = DIRECTION ( 'NONE',  ( 1.000000000000000000, 0.000000000000000000, 0.000000000000000000 ) ) ;
#319 = CARTESIAN_POINT ( 'NONE',  ( 0.000000000000000000, 0.000000000000000000, 0.000000000000000000 ) ) ;
#320 = ORIENTED_EDGE ( 'NONE', *, *, #689, .F. ) ;
#321 = DIRECTION ( 'NONE',  ( 0.000000000000000000, 0.000000000000000000, 1.000000000000000000 ) ) ;
#322 = CIRCLE ( 'NONE', #747, 0.04641743891356109319 ) ;
#323 = LINE ( 'NONE', #912, #227 ) ;
#324 = CARTESIAN_POINT ( 'NONE',  ( 0.5937500000000000000, 7.271340369937410515E-17, 0.2500000000000000000 ) ) ;
#325 = APPROVAL ( #673, 'UNSPECIFIED' ) ;
#326 = ORIENTED_EDGE ( 'NONE', *, *, #682, .F. ) ;
#327 = FACE_OUTER_BOUND ( 'NONE', #626, .T. ) ;
#328 = DIRECTION ( 'NONE',  ( -0.000000000000000000, -0.000000000000000000, 1.000000000000000000 ) ) ;
#329 = EDGE_CURVE ( 'NONE', #941, #596, #118, .T. ) ;
#330 = ORIENTED_EDGE ( 'NONE', *, *, #67, .T. ) ;
#331 = DIRECTION ( 'NONE',  ( 0.000000000000000000, 0.000000000000000000, 1.000000000000000000 ) ) ;
#332 = CARTESIAN_POINT ( 'NONE',  ( 5.684496799011038759E-18, 0.5937500000000000000, -0.04641743891356109319 ) ) ;
#333 = ORIENTED_EDGE ( 'NONE', *, *, #337, .T. ) ;
#334 = FACE_BOUND ( 'NONE', #207, .T. ) ;
#335 = ORIENTED_EDGE ( 'NONE', *, *, #501, .T. ) ;
#336 = CIRCLE ( 'NONE', #635, 0.3695940340427589788 ) ;
#337 = EDGE_CURVE ( 'NONE', #813, #878, #269, .T. ) ;
#338 = LINE ( 'NONE', #623, #197 ) ;
#339 = AXIS2_PLACEMENT_3D ( 'NONE', #849, #44, #838 ) ;
#340 = CARTESIAN_POINT ( 'NONE',  ( 0.5937500000000000000, 0.000000000000000000, 0.04641743891356109319 ) ) ;
#341 = ORIENTED_EDGE ( 'NONE', *, *, #16, .T. ) ;
#342 = CARTESIAN_POINT ( 'NONE',  ( 5.684496799011038759E-18, 0.5937500000000000000, 0.04641743891356109319 ) ) ;
#343 = CC_DESIGN_SECURITY_CLASSIFICATION ( #733, ( #575 ) ) ;
#344 = VERTEX_POINT ( 'NONE', #707 ) ;
#345 = DIRECTION ( 'NONE',  ( -1.000000000000000000, 0.000000000000000000, 0.000000000000000000 ) ) ;
#346 = ORIENTED_EDGE ( 'NONE', *, *, #591, .F. ) ;
#347 = CARTESIAN_POINT ( 'NONE',  ( 0.000000000000000000, 0.000000000000000000, 0.04641743891356109319 ) ) ;
#348 = ORIENTED_EDGE ( 'NONE', *, *, #86, .T. ) ;
#349 = DIRECTION ( 'NONE',  ( 1.000000000000000000, 0.000000000000000000, 0.000000000000000000 ) ) ;
#350 = DIRECTION ( 'NONE',  ( -0.000000000000000000, -0.000000000000000000, 1.000000000000000000 ) ) ;
#351 = EDGE_LOOP ( 'NONE', ( #607, #320 ) ) ;
#352 = CIRCLE ( 'NONE', #454, 0.04641743891356109319 ) ;
#353 = ORIENTED_EDGE ( 'NONE', *, *, #699, .T. ) ;
#354 = ADVANCED_FACE ( 'NONE', ( #550 ), #853, .T. ) ;
#355 = EDGE_LOOP ( 'NONE', ( #776, #243, #330, #904 ) ) ;
#356 = CYLINDRICAL_SURFACE ( 'NONE', #20, 0.5937500000000000000 ) ;
#357 = EDGE_CURVE ( 'NONE', #856, #632, #696, .T. ) ;
#358 = PERSON_AND_ORGANIZATION ( #148, #417 ) ;
#359 = EDGE_CURVE ( 'NONE', #915, #729, #338, .T. ) ;
#360 = DIRECTION ( 'NONE',  ( 0.000000000000000000, 0.000000000000000000, -1.000000000000000000 ) ) ;
#361 = ORIENTED_EDGE ( 'NONE', *, *, #644, .F. ) ;
#362 = CARTESIAN_POINT ( 'NONE',  ( 0.03095690805368991882, 0.5737420559972810086, -0.03532731474277532591 ) ) ;
#363 = APPROVAL ( #9, 'UNSPECIFIED' ) ;
#364 = PERSON_AND_ORGANIZATION_ROLE ( 'design_owner' ) ;
#365 = ORIENTED_EDGE ( 'NONE', *, *, #16, .F. ) ;
#366 = CIRCLE ( 'NONE', #75, 0.3125000000000000000 ) ;
#367 = DIRECTION ( 'NONE',  ( -1.000000000000000000, 0.000000000000000000, 0.000000000000000000 ) ) ;
#368 = CONICAL_SURFACE ( 'NONE', #77, 0.5937500000000000000, 0.7853981633974492782 ) ;
#369 = ORIENTED_EDGE ( 'NONE', *, *, #38, .F. ) ;
#370 = CARTESIAN_POINT ( 'NONE',  ( 0.000000000000000000, 0.000000000000000000, -0.04641743891356109319 ) ) ;
#371 = CARTESIAN_POINT ( 'NONE',  ( 0.000000000000000000, 0.000000000000000000, 0.000000000000000000 ) ) ;
#372 = ORIENTED_EDGE ( 'NONE', *, *, #133, .T. ) ;
#373 = ORIENTED_EDGE ( 'NONE', *, *, #210, .T. ) ;
#374 = DIRECTION ( 'NONE',  ( 1.000000000000000000, 0.000000000000000000, -0.000000000000000000 ) ) ;
#375 = CARTESIAN_POINT ( 'NONE',  ( 0.04094352898792674028, 0.5572842636037602659, -0.02236372905138470785 ) ) ;
#376 = ORIENTED_EDGE ( 'NONE', *, *, #478, .F. ) ;
#377 = CARTESIAN_POINT ( 'NONE',  ( -0.03512026267901317139, 0.5657389011453463068, 0.03086688100085848221 ) ) ;
#378 = CARTESIAN_POINT ( 'NONE',  ( 0.02184803554235741421, 0.5841618113385168565, 0.04111247673948202619 ) ) ;
#379 = DIRECTION ( 'NONE',  ( -1.000000000000000000, 0.000000000000000000, 0.000000000000000000 ) ) ;
#380 = ORIENTED_EDGE ( 'NONE', *, *, #600, .T. ) ;
#381 = DIRECTION ( 'NONE',  ( -1.000000000000000000, 0.000000000000000000, 0.000000000000000000 ) ) ;
#382 = AXIS2_PLACEMENT_3D ( 'NONE', #553, #253, #851 ) ;
#383 = AXIS2_PLACEMENT_3D ( 'NONE', #78, #719, #424 ) ;
#384 = ADVANCED_FACE ( 'NONE', ( #264 ), #33, .T. ) ;
#385 = DIRECTION ( 'NONE',  ( 0.000000000000000000, 0.000000000000000000, -1.000000000000000000 ) ) ;
#386 = DIRECTION ( 'NONE',  ( -0.000000000000000000, -0.000000000000000000, 1.000000000000000000 ) ) ;
#387 = CARTESIAN_POINT ( 'NONE',  ( -0.04641743891356115564, 0.4866312433092492840, 0.000000000000000000 ) ) ;
#388 = CC_DESIGN_APPROVAL ( #325, ( #733 ) ) ;
#389 = CARTESIAN_POINT ( 'NONE',  ( 0.5617500000000000826, 7.075396882073834436E-17, 0.2500000000000000000 ) ) ;
#390 = FACE_OUTER_BOUND ( 'NONE', #931, .T. ) ;
#391 = MANIFOLD_SOLID_BREP ( 'Cut-Extrude2', #676 ) ;
#392 = CARTESIAN_POINT ( 'NONE',  ( 0.5937500000000000000, 7.271340369937410515E-17, -0.04641743891356109319 ) ) ;
#393 = DIRECTION ( 'NONE',  ( 1.000000000000000000, 0.000000000000000000, 0.000000000000000000 ) ) ;
#394 = CIRCLE ( 'NONE', #537, 0.5587800000000000544 ) ;
#395 = AXIS2_PLACEMENT_3D ( 'NONE', #810, #386, #598 ) ;
#396 = EDGE_CURVE ( 'NONE', #22, #819, #778, .T. ) ;
#397 = CARTESIAN_POINT ( 'NONE',  ( 0.000000000000000000, 0.000000000000000000, -0.02622750000000000081 ) ) ;
#398 = CONICAL_SURFACE ( 'NONE', #440, 0.5617500000000000826, 0.7853981633974450594 ) ;
#399 = EDGE_CURVE ( 'NONE', #554, #28, #636, .T. ) ;
#400 = CARTESIAN_POINT ( 'NONE',  ( 5.684496799011038759E-18, 0.4866312433092492840, 0.04641743891356109319 ) ) ;
#401 = VERTEX_POINT ( 'NONE', #41 ) ;
#402 = DIRECTION ( 'NONE',  ( 1.000000000000000000, 0.000000000000000000, 0.000000000000000000 ) ) ;
#403 = CARTESIAN_POINT ( 'NONE',  ( -0.03829747875571387628, 0.5574660451731142663, -0.02622749999999839446 ) ) ;
#404 = ORIENTED_EDGE ( 'NONE', *, *, #751, .F. ) ;
#405 = EDGE_CURVE ( 'NONE', #915, #435, #758, .T. ) ;
#406 = DIRECTION ( 'NONE',  ( 1.000000000000000000, 0.000000000000000000, 0.000000000000000000 ) ) ;
#407 = CARTESIAN_POINT ( 'NONE',  ( -0.5937500000000000000, 0.000000000000000000, 0.2500000000000000000 ) ) ;
#408 = SPHERICAL_SURFACE ( 'NONE', #169, 0.4888399999999999412 ) ;
#409 = VERTEX_POINT ( 'NONE', #214 ) ;
#410 = ADVANCED_FACE ( 'NONE', ( #495 ), #698, .T. ) ;
#411 = CIRCLE ( 'NONE', #45, 0.5587800000000000544 ) ;
#412 = CARTESIAN_POINT ( 'NONE',  ( 0.5587800000000000544, 6.843081384275581689E-17, -0.02622750000000000081 ) ) ;
#413 = ORIENTED_EDGE ( 'NONE', *, *, #834, .F. ) ;
#414 = DIRECTION ( 'NONE',  ( -1.000000000000000000, 0.000000000000000000, 0.000000000000000000 ) ) ;
#415 = ORIENTED_EDGE ( 'NONE', *, *, #184, .T. ) ;
#416 = CARTESIAN_POINT ( 'NONE',  ( 0.04641743891356115564, 0.4866312433092492840, -5.684496799011111174E-18 ) ) ;
#417 = ORGANIZATION ( 'UNSPECIFIED', 'UNSPECIFIED', '' ) ;
#418 = DIRECTION ( 'NONE',  ( -1.000000000000000000, 0.000000000000000000, 1.224646799147352961E-16 ) ) ;
#419 = CARTESIAN_POINT ( 'NONE',  ( 0.000000000000000000, 0.000000000000000000, 0.04641743891356109319 ) ) ;
#420 = EDGE_CURVE ( 'NONE', #564, #5, #908, .T. ) ;
#421 = VECTOR ( 'NONE', #531, 39.37007874015748143 ) ;
#422 = CARTESIAN_POINT ( 'NONE',  ( 0.000000000000000000, 0.000000000000000000, -0.2500000000000000000 ) ) ;
#423 = ORIENTED_EDGE ( 'NONE', *, *, #254, .F. ) ;
#424 = DIRECTION ( 'NONE',  ( 0.000000000000000000, 0.000000000000000000, -1.000000000000000000 ) ) ;
#425 = CIRCLE ( 'NONE', #918, 0.5937500000000000000 ) ;
#426 = ADVANCED_FACE ( 'NONE', ( #434 ), #356, .T. ) ;
#427 = FACE_OUTER_BOUND ( 'NONE', #650, .T. ) ;
#428 = CONICAL_SURFACE ( 'NONE', #107, 0.5587800000000000544, 1.047197551196600074 ) ;
#429 = VECTOR ( 'NONE', #936, 39.37007874015748143 ) ;
#430 = EDGE_LOOP ( 'NONE', ( #788, #187, #887, #54 ) ) ;
#431 = FACE_OUTER_BOUND ( 'NONE', #938, .T. ) ;
#432 = ORIENTED_EDGE ( 'NONE', *, *, #460, .F. ) ;
#433 = EDGE_CURVE ( 'NONE', #435, #594, #109, .T. ) ;
#434 = FACE_OUTER_BOUND ( 'NONE', #65, .T. ) ;
#435 = VERTEX_POINT ( 'NONE', #496 ) ;
#436 = CARTESIAN_POINT ( 'NONE',  ( 0.03829747875571152399, 0.5574660451731171529, -0.02622750000000000081 ) ) ;
#437 = DIRECTION ( 'NONE',  ( -1.000000000000000000, 0.000000000000000000, 0.000000000000000000 ) ) ;
#438 = ORIENTED_EDGE ( 'NONE', *, *, #879, .T. ) ;
#439 = VECTOR ( 'NONE', #557, 39.37007874015748143 ) ;
#440 = AXIS2_PLACEMENT_3D ( 'NONE', #687, #53, #345 ) ;
#441 = FACE_OUTER_BOUND ( 'NONE', #74, .T. ) ;
#442 = CARTESIAN_POINT ( 'NONE',  ( 0.000000000000000000, 0.000000000000000000, -0.2179999999999999716 ) ) ;
#443 = DATE_AND_TIME ( #155, #701 ) ;
#444 = DIRECTION ( 'NONE',  ( -0.000000000000000000, -0.000000000000000000, -1.000000000000000000 ) ) ;
#445 = CARTESIAN_POINT ( 'NONE',  ( 0.000000000000000000, 0.000000000000000000, -0.2179999999999999716 ) ) ;
#446 = DIRECTION ( 'NONE',  ( 1.000000000000000000, 0.000000000000000000, 0.000000000000000000 ) ) ;
#447 = ORIENTED_EDGE ( 'NONE', *, *, #56, .T. ) ;
#448 = EDGE_CURVE ( 'NONE', #729, #282, #486, .T. ) ;
#449 = CARTESIAN_POINT ( 'NONE',  ( 0.000000000000000000, 0.000000000000000000, -0.2500000000000000000 ) ) ;
#450 = DIRECTION ( 'NONE',  ( 1.000000000000000000, 0.000000000000000000, 0.000000000000000000 ) ) ;
#451 = DIRECTION ( 'NONE',  ( 0.000000000000000000, 0.000000000000000000, -1.000000000000000000 ) ) ;
#452 = CARTESIAN_POINT ( 'NONE',  ( 0.000000000000000000, 0.000000000000000000, -0.2179999999999999716 ) ) ;
#453 = AXIS2_PLACEMENT_3D ( 'NONE', #285, #137, #85 ) ;
#454 = AXIS2_PLACEMENT_3D ( 'NONE', #700, #627, #926 ) ;
#455 = AXIS2_PLACEMENT_3D ( 'NONE', #102, #88, #450 ) ;
#456 = CARTESIAN_POINT ( 'NONE',  ( 0.000000000000000000, 0.000000000000000000, -0.2500000000000000000 ) ) ;
#457 = DIRECTION ( 'NONE',  ( -1.000000000000000000, 0.000000000000000000, 1.224646799147353454E-16 ) ) ;
#458 = CARTESIAN_POINT ( 'NONE',  ( 0.000000000000000000, 0.000000000000000000, -0.2179999999999999716 ) ) ;
#459 = CARTESIAN_POINT ( 'NONE',  ( -0.5937500000000000000, 0.000000000000000000, -0.2179999999999999716 ) ) ;
#460 = EDGE_CURVE ( 'NONE', #915, #554, #2, .T. ) ;
#461 = CYLINDRICAL_SURFACE ( 'NONE', #762, 0.5587800000000000544 ) ;
#462 = VERTEX_POINT ( 'NONE', #563 ) ;
#463 = ORIENTED_EDGE ( 'NONE', *, *, #189, .T. ) ;
#464 = CARTESIAN_POINT ( 'NONE',  ( 0.000000000000000000, 0.000000000000000000, 0.04641743891356109319 ) ) ;
#465 = DIRECTION ( 'NONE',  ( -1.000000000000000000, -1.028256970764725727E-15, 0.000000000000000000 ) ) ;
#466 = DIRECTION ( 'NONE',  ( -0.000000000000000000, 0.000000000000000000, -1.000000000000000000 ) ) ;
#467 = EDGE_LOOP ( 'NONE', ( #852, #830 ) ) ;
#468 = PRODUCT ( '63195K75_Swivel Joint', '63195K75_Swivel Joint', '', ( #945 ) ) ;
#469 = VECTOR ( 'NONE', #126, 39.37007874015748854 ) ;
#470 = CARTESIAN_POINT ( 'NONE',  ( -0.5617500000000000826, 0.000000000000000000, 0.2500000000000000000 ) ) ;
#471 = CONICAL_SURFACE ( 'NONE', #61, 0.5937500000000000000, 0.7853981633974492782 ) ;
#472 = CARTESIAN_POINT ( 'NONE',  ( 0.000000000000000000, 0.000000000000000000, -0.3125000000000000000 ) ) ;
#473 = EDGE_CURVE ( 'NONE', #911, #729, #841, .T. ) ;
#474 = DIRECTION ( 'NONE',  ( -0.000000000000000000, -0.000000000000000000, 1.000000000000000000 ) ) ;
#475 =( GEOMETRIC_REPRESENTATION_CONTEXT ( 3 ) GLOBAL_UNCERTAINTY_ASSIGNED_CONTEXT ( ( #581 ) ) GLOBAL_UNIT_ASSIGNED_CONTEXT ( ( #799, #511, #72 ) ) REPRESENTATION_CONTEXT ( 'NONE', 'WORKASPACE' ) );
#476 = CARTESIAN_POINT ( 'NONE',  ( -0.04642607411278344698, 0.5568480116853347095, -0.009238020368755185674 ) ) ;
#477 = ADVANCED_BREP_SHAPE_REPRESENTATION ( '63195K75_Swivel Joint', ( #391, #287, #768 ), #475 ) ;
#478 = EDGE_CURVE ( 'NONE', #935, #462, #567, .T. ) ;
#479 = DIRECTION ( 'NONE',  ( 1.000000000000000000, 0.000000000000000000, 0.000000000000000000 ) ) ;
#480 = ADVANCED_FACE ( 'NONE', ( #431, #645 ), #880, .F. ) ;
#481 = CARTESIAN_POINT ( 'NONE',  ( 0.5587800000000000544, 0.000000000000000000, 0.02622750000000000081 ) ) ;
#482 = DIRECTION ( 'NONE',  ( 1.000000000000000000, 0.000000000000000000, 0.000000000000000000 ) ) ;
#483 = CARTESIAN_POINT ( 'NONE',  ( 0.000000000000000000, 0.000000000000000000, 0.02622750000000000081 ) ) ;
#484 = DIRECTION ( 'NONE',  ( 0.000000000000000000, -1.000000000000000000, 0.000000000000000000 ) ) ;
#485 = ORIENTED_EDGE ( 'NONE', *, *, #448, .F. ) ;
#486 = CIRCLE ( 'NONE', #383, 0.04641743891356109319 ) ;
#487 = DIRECTION ( 'NONE',  ( 1.000000000000000000, 0.000000000000000000, 0.000000000000000000 ) ) ;
#488 = ORIENTED_EDGE ( 'NONE', *, *, #86, .F. ) ;
#489 = EDGE_CURVE ( 'NONE', #28, #462, #213, .T. ) ;
#490 = CARTESIAN_POINT ( 'NONE',  ( 0.000000000000000000, 0.000000000000000000, 0.3125000000000000000 ) ) ;
#491 = LOCAL_TIME ( 13, 23, 32.00000000000000000, #815 ) ;
#492 = EDGE_LOOP ( 'NONE', ( #900, #52, #930, #609 ) ) ;
#493 = CARTESIAN_POINT ( 'NONE',  ( 0.000000000000000000, 0.5937500000000000000, 0.04641743891356109319 ) ) ;
#494 = EDGE_CURVE ( 'NONE', #147, #173, #795, .T. ) ;
#495 = FACE_OUTER_BOUND ( 'NONE', #642, .T. ) ;
#496 = CARTESIAN_POINT ( 'NONE',  ( 0.03829747875571152399, 0.5574660451731171529, -0.02622750000000000081 ) ) ;
#497 = AXIS2_PLACEMENT_3D ( 'NONE', #422, #444, #578 ) ;
#498 = CARTESIAN_POINT ( 'NONE',  ( 0.000000000000000000, 0.000000000000000000, 0.2500000000000000000 ) ) ;
#499 = ORIENTED_EDGE ( 'NONE', *, *, #573, .T. ) ;
#500 = CIRCLE ( 'NONE', #246, 0.5937500000000000000 ) ;
#501 = EDGE_CURVE ( 'NONE', #271, #915, #188, .T. ) ;
#502 = CARTESIAN_POINT ( 'NONE',  ( 0.5937500000000000000, 0.000000000000000000, -0.2179999999999999716 ) ) ;
#503 = APPROVAL_ROLE ( '' ) ;
#504 = ORIENTED_EDGE ( 'NONE', *, *, #478, .T. ) ;
#505 = VERTEX_POINT ( 'NONE', #280 ) ;
#506 = DIRECTION ( 'NONE',  ( 1.000000000000000000, 0.000000000000000000, 0.000000000000000000 ) ) ;
#507 = COORDINATED_UNIVERSAL_TIME_OFFSET ( 6, 0, .BEHIND. ) ;
#508 = ORIENTED_EDGE ( 'NONE', *, *, #184, .F. ) ;
#509 = DIRECTION ( 'NONE',  ( 0.000000000000000000, 0.000000000000000000, 1.000000000000000000 ) ) ;
#510 = CARTESIAN_POINT ( 'NONE',  ( -0.009984605300218980448, 0.5921604751921257792, -0.04553970049077055160 ) ) ;
#511 =( NAMED_UNIT ( * ) PLANE_ANGLE_UNIT ( ) SI_UNIT ( $, .RADIAN. ) );
#512 = CIRCLE ( 'NONE', #19, 0.5937500000000000000 ) ;
#513 = CARTESIAN_POINT ( 'NONE',  ( -0.3125000000000000000, 3.827021247335478926E-17, 0.3125000000000000000 ) ) ;
#514 = FACE_BOUND ( 'NONE', #297, .T. ) ;
#515 = EDGE_CURVE ( 'NONE', #596, #462, #561, .T. ) ;
#516 = DIRECTION ( 'NONE',  ( 0.000000000000000000, 0.000000000000000000, -1.000000000000000000 ) ) ;
#517 = DIRECTION ( 'NONE',  ( 0.000000000000000000, 0.000000000000000000, -1.000000000000000000 ) ) ;
#518 = CARTESIAN_POINT ( 'NONE',  ( 0.000000000000000000, 0.000000000000000000, 0.000000000000000000 ) ) ;
#519 = EDGE_CURVE ( 'NONE', #599, #256, #920, .T. ) ;
#520 = PERSON_AND_ORGANIZATION_ROLE ( 'classification_officer' ) ;
#521 = CARTESIAN_POINT ( 'NONE',  ( -0.5937500000000000000, 7.271340369937410515E-17, -0.2179999999999999716 ) ) ;
#522 = CARTESIAN_POINT ( 'NONE',  ( -0.01833536684797951871, 0.5873354651993997200, 0.04287028596818860671 ) ) ;
#523 = DIRECTION ( 'NONE',  ( 1.000000000000000000, 0.000000000000000000, 0.000000000000000000 ) ) ;
#524 = FACE_OUTER_BOUND ( 'NONE', #801, .T. ) ;
#525 = DIRECTION ( 'NONE',  ( 0.000000000000000000, -1.000000000000000000, 0.000000000000000000 ) ) ;
#526 = AXIS2_PLACEMENT_3D ( 'NONE', #449, #57, #374 ) ;
#527 = EDGE_CURVE ( 'NONE', #344, #935, #825, .T. ) ;
#528 = EDGE_LOOP ( 'NONE', ( #129, #277, #413, #73 ) ) ;
#529 = AXIS2_PLACEMENT_3D ( 'NONE', #370, #647, #730 ) ;
#530 = CARTESIAN_POINT ( 'NONE',  ( 0.000000000000000000, 0.5937500000000000000, 0.04641743891356109319 ) ) ;
#531 = DIRECTION ( 'NONE',  ( -0.7071067811865483499, 8.659560562354943952E-17, 0.7071067811865467956 ) ) ;
#532 = DIRECTION ( 'NONE',  ( 1.000000000000000000, 0.000000000000000000, 0.000000000000000000 ) ) ;
#533 = DIRECTION ( 'NONE',  ( -0.000000000000000000, -0.000000000000000000, 1.000000000000000000 ) ) ;
#534 = ORIENTED_EDGE ( 'NONE', *, *, #396, .F. ) ;
#535 = PLANE ( 'NONE',  #211 ) ;
#536 = DIRECTION ( 'NONE',  ( -0.000000000000000000, -0.000000000000000000, -1.000000000000000000 ) ) ;
#537 = AXIS2_PLACEMENT_3D ( 'NONE', #483, #866, #744 ) ;
#538 = CONICAL_SURFACE ( 'NONE', #306, 0.5617500000000000826, 0.7853981633974450594 ) ;
#539 = AXIS2_PLACEMENT_3D ( 'NONE', #419, #116, #190 ) ;
#540 = DIRECTION ( 'NONE',  ( -0.000000000000000000, -0.000000000000000000, 1.000000000000000000 ) ) ;
#541 = AXIS2_PLACEMENT_3D ( 'NONE', #752, #891, #25 ) ;
#542 = CARTESIAN_POINT ( 'NONE',  ( 0.009929716075620971180, 0.5921918956592127081, -0.04555708325937701808 ) ) ;
#543 = EDGE_CURVE ( 'NONE', #813, #703, #500, .T. ) ;
#544 = DIRECTION ( 'NONE',  ( 1.000000000000000000, 0.000000000000000000, 0.000000000000000000 ) ) ;
#545 = ORIENTED_EDGE ( 'NONE', *, *, #139, .T. ) ;
#546 = CARTESIAN_POINT ( 'NONE',  ( 0.02184591888031264459, 0.5841627303436129903, -0.04111298013450693373 ) ) ;
#547 = VERTEX_POINT ( 'NONE', #592 ) ;
#548 = CARTESIAN_POINT ( 'NONE',  ( 0.5937500000000000000, 0.000000000000000000, 0.04641743891356109319 ) ) ;
#549 = VERTEX_POINT ( 'NONE', #308 ) ;
#550 = FACE_OUTER_BOUND ( 'NONE', #577, .T. ) ;
#551 = PRODUCT_DEFINITION ( 'UNKNOWN', '', #575, #225 ) ;
#552 = DIRECTION ( 'NONE',  ( -0.000000000000000000, -0.000000000000000000, -1.000000000000000000 ) ) ;
#553 = CARTESIAN_POINT ( 'NONE',  ( 0.000000000000000000, 0.000000000000000000, 0.000000000000000000 ) ) ;
#554 = VERTEX_POINT ( 'NONE', #663 ) ;
#555 = AXIS2_PLACEMENT_3D ( 'NONE', #347, #350, #770 ) ;
#556 = CIRCLE ( 'NONE', #497, 0.5617499999999999716 ) ;
#557 = DIRECTION ( 'NONE',  ( 0.7071067811865452413, 8.659560562354904508E-17, -0.7071067811865497932 ) ) ;
#558 = ADVANCED_FACE ( 'NONE', ( #514, #314 ), #606, .T. ) ;
#559 = CARTESIAN_POINT ( 'NONE',  ( 0.3695940340427589788, 0.000000000000000000, -0.3125000000000000000 ) ) ;
#560 = ORIENTED_EDGE ( 'NONE', *, *, #817, .F. ) ;
#561 = LINE ( 'NONE', #864, #749 ) ;
#562 = ORIENTED_EDGE ( 'NONE', *, *, #699, .F. ) ;
#563 = CARTESIAN_POINT ( 'NONE',  ( 0.5937500000000000000, 7.271340369937410515E-17, -0.2179999999999999716 ) ) ;
#564 = VERTEX_POINT ( 'NONE', #389 ) ;
#565 = ADVANCED_FACE ( 'NONE', ( #906, #13 ), #29, .F. ) ;
#566 = PERSON_AND_ORGANIZATION ( #148, #417 ) ;
#567 = LINE ( 'NONE', #502, #429 ) ;
#568 = AXIS2_PLACEMENT_3D ( 'NONE', #445, #921, #406 ) ;
#569 = FACE_OUTER_BOUND ( 'NONE', #922, .T. ) ;
#570 = AXIS2_PLACEMENT_3D ( 'NONE', #319, #533, #393 ) ;
#571 = EDGE_LOOP ( 'NONE', ( #63, #83 ) ) ;
#572 = AXIS2_PLACEMENT_3D ( 'NONE', #869, #8, #64 ) ;
#573 = EDGE_CURVE ( 'NONE', #200, #104, #777, .T. ) ;
#574 = DIRECTION ( 'NONE',  ( -1.000000000000000000, 0.000000000000000000, 0.000000000000000000 ) ) ;
#575 = PRODUCT_DEFINITION_FORMATION_WITH_SPECIFIED_SOURCE ( 'ANY', '', #468, .NOT_KNOWN. ) ;
#576 = VERTEX_POINT ( 'NONE', #530 ) ;
#577 = EDGE_LOOP ( 'NONE', ( #346, #836, #142, #127, #432 ) ) ;
#578 = DIRECTION ( 'NONE',  ( 1.000000000000000000, 0.000000000000000000, 0.000000000000000000 ) ) ;
#579 = CARTESIAN_POINT ( 'NONE',  ( -0.02793324358304470276, 0.5771988600170981920, -0.03724656096399849708 ) ) ;
#580 = ORIENTED_EDGE ( 'NONE', *, *, #242, .T. ) ;
#581 = UNCERTAINTY_MEASURE_WITH_UNIT (LENGTH_MEASURE( 1.000000000000000082E-05 ), #799, 'distance_accuracy_value', 'NONE');
#582 = EDGE_CURVE ( 'NONE', #594, #576, #693, .T. ) ;
#583 = DIRECTION ( 'NONE',  ( -0.000000000000000000, 0.000000000000000000, -1.000000000000000000 ) ) ;
#584 = ORIENTED_EDGE ( 'NONE', *, *, #672, .F. ) ;
#585 = ADVANCED_FACE ( 'NONE', ( #826 ), #368, .T. ) ;
#586 = DIRECTION ( 'NONE',  ( 0.000000000000000000, 0.000000000000000000, -1.000000000000000000 ) ) ;
#587 = CARTESIAN_POINT ( 'NONE',  ( -0.5617500000000000826, 0.000000000000000000, 0.2500000000000000000 ) ) ;
#588 = AXIS2_PLACEMENT_3D ( 'NONE', #252, #159, #753 ) ;
#589 = CIRCLE ( 'NONE', #119, 0.4200768329722551764 ) ;
#590 = DIRECTION ( 'NONE',  ( -0.000000000000000000, -1.000000000000000000, -0.000000000000000000 ) ) ;
#591 = EDGE_CURVE ( 'NONE', #596, #915, #135, .T. ) ;
#592 = CARTESIAN_POINT ( 'NONE',  ( 0.3695940340427589788, 4.526221507744226839E-17, 0.3125000000000000000 ) ) ;
#593 = FACE_OUTER_BOUND ( 'NONE', #111, .T. ) ;
#594 = VERTEX_POINT ( 'NONE', #745 ) ;
#595 = CARTESIAN_POINT ( 'NONE',  ( 0.000000000000000000, 0.000000000000000000, 0.3125000000000000000 ) ) ;
#596 = VERTEX_POINT ( 'NONE', #392 ) ;
#597 = DIRECTION ( 'NONE',  ( -1.000000000000000000, -1.086452335972193271E-15, 0.000000000000000000 ) ) ;
#598 = DIRECTION ( 'NONE',  ( 1.000000000000000000, 0.000000000000000000, 0.000000000000000000 ) ) ;
#599 = VERTEX_POINT ( 'NONE', #93 ) ;
#600 = EDGE_CURVE ( 'NONE', #505, #409, #47, .T. ) ;
#601 = ORIENTED_EDGE ( 'NONE', *, *, #811, .T. ) ;
#602 = EDGE_LOOP ( 'NONE', ( #656, #670, #313, #404 ) ) ;
#603 = DIRECTION ( 'NONE',  ( 1.000000000000000000, 0.000000000000000000, 0.000000000000000000 ) ) ;
#604 = DIRECTION ( 'NONE',  ( -1.000000000000000000, 0.000000000000000000, 0.000000000000000000 ) ) ;
#605 = AXIS2_PLACEMENT_3D ( 'NONE', #199, #331, #414 ) ;
#606 = SPHERICAL_SURFACE ( 'NONE', #651, 0.4840000000000000968 ) ;
#607 = ORIENTED_EDGE ( 'NONE', *, *, #867, .F. ) ;
#608 = LINE ( 'NONE', #164, #293 ) ;
#609 = ORIENTED_EDGE ( 'NONE', *, *, #519, .F. ) ;
#610 = ADVANCED_FACE ( 'NONE', ( #524 ), #538, .T. ) ;
#611 = CARTESIAN_POINT ( 'NONE',  ( 0.000000000000000000, 0.000000000000000000, 0.04641743891356109319 ) ) ;
#612 = CARTESIAN_POINT ( 'NONE',  ( -0.3125000000000000000, 3.827021247335478926E-17, -0.3125000000000000000 ) ) ;
#613 = FACE_OUTER_BOUND ( 'NONE', #90, .T. ) ;
#614 = ORIENTED_EDGE ( 'NONE', *, *, #283, .F. ) ;
#615 = CARTESIAN_POINT ( 'NONE',  ( 0.000000000000000000, 0.4866312433092492840, -0.04641743891356109319 ) ) ;
#616 = ORIENTED_EDGE ( 'NONE', *, *, #24, .T. ) ;
#617 = ADVANCED_FACE ( 'NONE', ( #168 ), #760, .F. ) ;
#618 = CARTESIAN_POINT ( 'NONE',  ( 0.005022377933358776296, 0.5937500000000000000, -0.04641743891356109319 ) ) ;
#619 = ORIENTED_EDGE ( 'NONE', *, *, #765, .T. ) ;
#620 = AXIS2_PLACEMENT_3D ( 'NONE', #179, #466, #761 ) ;
#621 = DIRECTION ( 'NONE',  ( 1.000000000000000000, 0.000000000000000000, 0.000000000000000000 ) ) ;
#622 = AXIS2_PLACEMENT_3D ( 'NONE', #518, #240, #597 ) ;
#623 = CARTESIAN_POINT ( 'NONE',  ( 0.000000000000000000, 0.5937500000000000000, -0.04641743891356109319 ) ) ;
#624 = APPROVAL_PERSON_ORGANIZATION ( #870, #12, #503 ) ;
#625 = FACE_OUTER_BOUND ( 'NONE', #630, .T. ) ;
#626 = EDGE_LOOP ( 'NONE', ( #348, #888 ) ) ;
#627 = DIRECTION ( 'NONE',  ( -0.000000000000000000, -1.000000000000000000, -0.000000000000000000 ) ) ;
#628 = EDGE_CURVE ( 'NONE', #462, #28, #198, .T. ) ;
#629 = LINE ( 'NONE', #470, #893 ) ;
#630 = EDGE_LOOP ( 'NONE', ( #842, #485, #901, #942 ) ) ;
#631 = CARTESIAN_POINT ( 'NONE',  ( -0.3125000000000000000, 3.827021247335478926E-17, -0.4840000000000000968 ) ) ;
#632 = VERTEX_POINT ( 'NONE', #121 ) ;
#633 = CARTESIAN_POINT ( 'NONE',  ( -0.02184591888031264806, 0.5841627303436131013, 0.04111298013450692679 ) ) ;
#634 = CIRCLE ( 'NONE', #170, 0.4200768329722551764 ) ;
#635 = AXIS2_PLACEMENT_3D ( 'NONE', #128, #509, #367 ) ;
#636 = LINE ( 'NONE', #255, #679 ) ;
#637 = EDGE_LOOP ( 'NONE', ( #562, #784 ) ) ;
#638 = ORIENTED_EDGE ( 'NONE', *, *, #716, .F. ) ;
#639 = CC_DESIGN_DATE_AND_TIME_ASSIGNMENT ( #218, #295, ( #551 ) ) ;
#640 = CARTESIAN_POINT ( 'NONE',  ( 0.000000000000000000, 0.000000000000000000, 0.2500000000000000000 ) ) ;
#641 = APPROVAL_PERSON_ORGANIZATION ( #655, #363, #881 ) ;
#642 = EDGE_LOOP ( 'NONE', ( #946, #326, #335, #665 ) ) ;
#643 = ORIENTED_EDGE ( 'NONE', *, *, #357, .T. ) ;
#644 = EDGE_CURVE ( 'NONE', #256, #720, #272, .T. ) ;
#645 = FACE_BOUND ( 'NONE', #637, .T. ) ;
#646 = ORIENTED_EDGE ( 'NONE', *, *, #582, .F. ) ;
#647 = DIRECTION ( 'NONE',  ( -0.000000000000000000, -0.000000000000000000, 1.000000000000000000 ) ) ;
#648 = AXIS2_PLACEMENT_3D ( 'NONE', #934, #669, #658 ) ;
#649 = APPROVAL_DATE_TIME ( #660, #12 ) ;
#650 = EDGE_LOOP ( 'NONE', ( #731, #341, #782, #616, #37 ) ) ;
#651 = AXIS2_PLACEMENT_3D ( 'NONE', #820, #99, #465 ) ;
#652 = DIRECTION ( 'NONE',  ( -0.000000000000000000, -0.000000000000000000, 1.000000000000000000 ) ) ;
#653 = ORIENTED_EDGE ( 'NONE', *, *, #765, .F. ) ;
#654 = DIRECTION ( 'NONE',  ( 0.000000000000000000, 0.000000000000000000, -1.000000000000000000 ) ) ;
#655 = PERSON_AND_ORGANIZATION ( #148, #417 ) ;
#656 = ORIENTED_EDGE ( 'NONE', *, *, #420, .F. ) ;
#657 = ADVANCED_FACE ( 'NONE', ( #690 ), #680, .T. ) ;
#658 = DIRECTION ( 'NONE',  ( 1.000000000000000000, 0.000000000000000000, 0.000000000000000000 ) ) ;
#659 = DIRECTION ( 'NONE',  ( 0.000000000000000000, -1.000000000000000000, 0.000000000000000000 ) ) ;
#660 = DATE_AND_TIME ( #79, #250 ) ;
#661 = EDGE_CURVE ( 'NONE', #401, #715, #713, .T. ) ;
#662 = DIRECTION ( 'NONE',  ( -0.000000000000000000, 0.000000000000000000, -1.000000000000000000 ) ) ;
#663 = CARTESIAN_POINT ( 'NONE',  ( -0.5937500000000000000, 0.000000000000000000, -0.04641743891356109319 ) ) ;
#664 = DIRECTION ( 'NONE',  ( 0.000000000000000000, 0.000000000000000000, 1.000000000000000000 ) ) ;
#665 = ORIENTED_EDGE ( 'NONE', *, *, #460, .T. ) ;
#666 = AXIS2_PLACEMENT_3D ( 'NONE', #766, #540, #479 ) ;
#667 = CIRCLE ( 'NONE', #134, 0.3695940340427589788 ) ;
#668 = AXIS2_PLACEMENT_3D ( 'NONE', #896, #31, #603 ) ;
#669 = DIRECTION ( 'NONE',  ( 0.000000000000000000, 0.000000000000000000, 1.000000000000000000 ) ) ;
#670 = ORIENTED_EDGE ( 'NONE', *, *, #254, .T. ) ;
#671 = CARTESIAN_POINT ( 'NONE',  ( 0.000000000000000000, 0.000000000000000000, -0.3125000000000000000 ) ) ;
#672 = EDGE_CURVE ( 'NONE', #256, #594, #34, .T. ) ;
#673 = APPROVAL_STATUS ( 'not_yet_approved' ) ;
#674 = LINE ( 'NONE', #905, #46 ) ;
#675 = ORIENTED_EDGE ( 'NONE', *, *, #396, .T. ) ;
#676 = CLOSED_SHELL ( 'NONE', ( #863, #558, #903, #685, #792, #480 ) ) ;
#677 = CARTESIAN_POINT ( 'NONE',  ( 0.000000000000000000, 0.000000000000000000, 0.2179999999999998328 ) ) ;
#678 = CARTESIAN_POINT ( 'NONE',  ( 0.000000000000000000, 0.000000000000000000, -0.02622750000000000081 ) ) ;
#679 = VECTOR ( 'NONE', #536, 39.37007874015748143 ) ;
#680 = CONICAL_SURFACE ( 'NONE', #666, 0.5937500000000000000, 1.047197551196600074 ) ;
#681 = DIRECTION ( 'NONE',  ( -0.000000000000000000, -0.000000000000000000, 1.000000000000000000 ) ) ;
#682 = EDGE_CURVE ( 'NONE', #271, #711, #1, .T. ) ;
#683 = CARTESIAN_POINT ( 'NONE',  ( 0.000000000000000000, 0.000000000000000000, -0.2500000000000000000 ) ) ;
#684 = ADVANCED_FACE ( 'NONE', ( #625, #334 ), #408, .F. ) ;
#685 = ADVANCED_FACE ( 'NONE', ( #772 ), #858, .F. ) ;
#686 = ORIENTED_EDGE ( 'NONE', *, *, #726, .T. ) ;
#687 = CARTESIAN_POINT ( 'NONE',  ( 0.000000000000000000, 0.000000000000000000, 0.2500000000000000000 ) ) ;
#688 = CARTESIAN_POINT ( 'NONE',  ( 0.000000000000000000, 0.000000000000000000, 0.2500000000000000000 ) ) ;
#689 = EDGE_CURVE ( 'NONE', #547, #549, #152, .T. ) ;
#690 = FACE_OUTER_BOUND ( 'NONE', #430, .T. ) ;
#691 = ORIENTED_EDGE ( 'NONE', *, *, #850, .T. ) ;
#692 = DIRECTION ( 'NONE',  ( -1.000000000000000000, 0.000000000000000000, 0.000000000000000000 ) ) ;
#693 = B_SPLINE_CURVE_WITH_KNOTS ( 'NONE', 3,
 ( #162, #249, #902, #910, #229, #378, #233, #174, #807, #814 ),
 .UNSPECIFIED., .F., .F.,
 ( 4, 2, 2, 2, 4 ),
 ( 0.0001095821966682035821, 0.0004877414357639417810, 0.0008659006748596800342, 0.001244059913955418125, 0.001622219153051156432 ),
 .UNSPECIFIED. ) ;
#694 = B_SPLINE_CURVE_WITH_KNOTS ( 'NONE', 3,
 ( #781, #773, #201, #767, #917, #476, #55, #403 ),
 .UNSPECIFIED., .F., .F.,
 ( 4, 2, 2, 4 ),
 ( 0.000000000000000000, 0.0003520569915793709181, 0.0007041139831587418362, 0.001408227966317483672 ),
 .UNSPECIFIED. ) ;
#695 = VECTOR ( 'NONE', #258, 39.37007874015748854 ) ;
#696 = CIRCLE ( 'NONE', #824, 0.3695940340427589788 ) ;
#697 = DIRECTION ( 'NONE',  ( 1.000000000000000000, 0.000000000000000000, 0.000000000000000000 ) ) ;
#698 = CONICAL_SURFACE ( 'NONE', #875, 0.5587800000000000544, 1.047197551196600074 ) ;
#699 = EDGE_CURVE ( 'NONE', #147, #22, #290, .T. ) ;
#700 = CARTESIAN_POINT ( 'NONE',  ( 0.000000000000000000, 0.4866312433092492840, 0.000000000000000000 ) ) ;
#701 = LOCAL_TIME ( 13, 23, 32.00000000000000000, #507 ) ;
#702 = DIRECTION ( 'NONE',  ( 0.000000000000000000, 0.000000000000000000, -1.000000000000000000 ) ) ;
#703 = VERTEX_POINT ( 'NONE', #925 ) ;
#704 = LINE ( 'NONE', #274, #439 ) ;
#705 = DIRECTION ( 'NONE',  ( 1.000000000000000000, 0.000000000000000000, -0.000000000000000000 ) ) ;
#706 = EDGE_LOOP ( 'NONE', ( #353, #675, #709, #220 ) ) ;
#707 = CARTESIAN_POINT ( 'NONE',  ( -0.5617499999999999716, 7.075396882073833203E-17, -0.2500000000000000000 ) ) ;
#708 = ORIENTED_EDGE ( 'NONE', *, *, #405, .F. ) ;
#709 = ORIENTED_EDGE ( 'NONE', *, *, #845, .T. ) ;
#710 = CARTESIAN_POINT ( 'NONE',  ( -0.5937500000000000000, 0.5937500000000000000, 0.3125000000000000000 ) ) ;
#711 = VERTEX_POINT ( 'NONE', #181 ) ;
#712 = AXIS2_PLACEMENT_3D ( 'NONE', #710, #662, #381 ) ;
#713 = CIRCLE ( 'NONE', #382, 0.4840000000000000968 ) ;
#714 = DIRECTION ( 'NONE',  ( -0.000000000000000000, -0.000000000000000000, -1.000000000000000000 ) ) ;
#715 = VERTEX_POINT ( 'NONE', #112 ) ;
#716 = EDGE_CURVE ( 'NONE', #720, #576, #512, .T. ) ;
#717 = CARTESIAN_POINT ( 'NONE',  ( 0.04358964278415423943, 0.5571024776676054557, 0.01849986528639690000 ) ) ;
#718 =( LENGTH_UNIT ( ) NAMED_UNIT ( * ) SI_UNIT ( $, .METRE. ) );
#719 = DIRECTION ( 'NONE',  ( -0.000000000000000000, -1.000000000000000000, -0.000000000000000000 ) ) ;
#720 = VERTEX_POINT ( 'NONE', #548 ) ;
#721 = EDGE_LOOP ( 'NONE', ( #177, #185 ) ) ;
#722 = ORIENTED_EDGE ( 'NONE', *, *, #628, .F. ) ;
#723 = CARTESIAN_POINT ( 'NONE',  ( -0.03487012842378255789, 0.5656175904020198653, -0.03079221371140353561 ) ) ;
#724 = CONICAL_SURFACE ( 'NONE', #840, 0.5587800000000000544, 1.047197551196600074 ) ;
#725 = AXIS2_PLACEMENT_3D ( 'NONE', #117, #263, #544 ) ;
#726 = EDGE_CURVE ( 'NONE', #703, #813, #873, .T. ) ;
#727 = APPLICATION_PROTOCOL_DEFINITION ( 'international standard', 'config_control_design', 1994, #837 ) ;
#728 = CARTESIAN_POINT ( 'NONE',  ( -0.5937500000000000000, 7.271340369937410515E-17, 0.04641743891356109319 ) ) ;
#729 = VERTEX_POINT ( 'NONE', #615 ) ;
#730 = DIRECTION ( 'NONE',  ( 1.000000000000000000, 0.000000000000000000, 0.000000000000000000 ) ) ;
#731 = ORIENTED_EDGE ( 'NONE', *, *, #543, .T. ) ;
#732 = CALENDAR_DATE ( 2026, 5, 1 ) ;
#733 = SECURITY_CLASSIFICATION ( '', '', #158 ) ;
#734 = CARTESIAN_POINT ( 'NONE',  ( 0.5617499999999999716, 0.000000000000000000, -0.2500000000000000000 ) ) ;
#735 = PLANE ( 'NONE',  #526 ) ;
#736 = DIRECTION ( 'NONE',  ( 0.000000000000000000, 0.000000000000000000, -1.000000000000000000 ) ) ;
#737 = VERTEX_POINT ( 'NONE', #775 ) ;
#738 = PERSON_AND_ORGANIZATION ( #148, #417 ) ;
#739 = DIRECTION ( 'NONE',  ( 1.000000000000000000, 0.000000000000000000, 0.000000000000000000 ) ) ;
#740 = ORIENTED_EDGE ( 'NONE', *, *, #789, .F. ) ;
#741 = DIRECTION ( 'NONE',  ( 0.000000000000000000, 0.000000000000000000, 1.000000000000000000 ) ) ;
#742 = ADVANCED_FACE ( 'NONE', ( #913 ), #398, .T. ) ;
#743 = ORIENTED_EDGE ( 'NONE', *, *, #405, .T. ) ;
#744 = DIRECTION ( 'NONE',  ( 1.000000000000000000, 0.000000000000000000, 0.000000000000000000 ) ) ;
#745 = CARTESIAN_POINT ( 'NONE',  ( 0.03829747875571152399, 0.5574660451731171529, 0.02622750000000000081 ) ) ;
#746 = CARTESIAN_POINT ( 'NONE',  ( -0.4200768329722551764, 5.144457488954296226E-17, 0.2500000000000000000 ) ) ;
#747 = AXIS2_PLACEMENT_3D ( 'NONE', #81, #590, #517 ) ;
#748 = CIRCLE ( 'NONE', #339, 0.5587800000000000544 ) ;
#749 = VECTOR ( 'NONE', #714, 39.37007874015748143 ) ;
#750 = DIRECTION ( 'NONE',  ( -1.000000000000000000, -1.028256970764725727E-15, 0.000000000000000000 ) ) ;
#751 = EDGE_CURVE ( 'NONE', #5, #813, #629, .T. ) ;
#752 = CARTESIAN_POINT ( 'NONE',  ( 0.000000000000000000, 0.000000000000000000, 0.02622750000000000081 ) ) ;
#753 = DIRECTION ( 'NONE',  ( 1.000000000000000000, 0.000000000000000000, 0.000000000000000000 ) ) ;
#754 = CC_DESIGN_APPROVAL ( #363, ( #575 ) ) ;
#755 = DIRECTION ( 'NONE',  ( -0.000000000000000000, -0.000000000000000000, 1.000000000000000000 ) ) ;
#756 = DATE_AND_TIME ( #898, #846 ) ;
#757 = CARTESIAN_POINT ( 'NONE',  ( 0.000000000000000000, 0.000000000000000000, 0.000000000000000000 ) ) ;
#758 = B_SPLINE_CURVE_WITH_KNOTS ( 'NONE', 3,
 ( #332, #618, #542, #844, #546, #362, #939, #436 ),
 .UNSPECIFIED., .F., .F.,
 ( 4, 2, 2, 4 ),
 ( 0.001622219153051156215, 0.001999677762583377573, 0.002377136372115598931, 0.003132053591180042080 ),
 .UNSPECIFIED. ) ;
#759 = ORIENTED_EDGE ( 'NONE', *, *, #527, .F. ) ;
#760 = CYLINDRICAL_SURFACE ( 'NONE', #94, 0.04641743891356109319 ) ;
#761 = DIRECTION ( 'NONE',  ( 1.000000000000000000, 0.000000000000000000, 0.000000000000000000 ) ) ;
#762 = AXIS2_PLACEMENT_3D ( 'NONE', #757, #816, #446 ) ;
#763 = CIRCLE ( 'NONE', #539, 0.5937500000000000000 ) ;
#764 = AXIS2_PLACEMENT_3D ( 'NONE', #806, #232, #418 ) ;
#765 = EDGE_CURVE ( 'NONE', #941, #435, #411, .T. ) ;
#766 = CARTESIAN_POINT ( 'NONE',  ( 0.000000000000000000, 0.000000000000000000, 0.04641743891356109319 ) ) ;
#767 = CARTESIAN_POINT ( 'NONE',  ( -0.04571317779841446716, 0.5569087106912792295, 0.009305417290286126589 ) ) ;
#768 = AXIS2_PLACEMENT_3D ( 'NONE', #371, #805, #146 ) ;
#769 = CARTESIAN_POINT ( 'NONE',  ( 0.000000000000000000, 0.000000000000000000, -0.4840000000000000968 ) ) ;
#770 = DIRECTION ( 'NONE',  ( 1.000000000000000000, 0.000000000000000000, 0.000000000000000000 ) ) ;
#771 = ADVANCED_FACE ( 'NONE', ( #327, #39 ), #535, .T. ) ;
#772 = FACE_OUTER_BOUND ( 'NONE', #311, .T. ) ;
#773 = CARTESIAN_POINT ( 'NONE',  ( -0.04094352898792660150, 0.5572842636037602659, 0.02236372905138488826 ) ) ;
#774 = AXIS2_PLACEMENT_3D ( 'NONE', #843, #927, #621 ) ;
#775 = CARTESIAN_POINT ( 'NONE',  ( -0.03829747875571152399, 0.5574660451731171529, 0.02622750000000000081 ) ) ;
#776 = ORIENTED_EDGE ( 'NONE', *, *, #329, .F. ) ;
#777 = CIRCLE ( 'NONE', #668, 0.4200768329722551764 ) ;
#778 = LINE ( 'NONE', #631, #855 ) ;
#779 = DIRECTION ( 'NONE',  ( -0.7071067811865452413, 0.000000000000000000, -0.7071067811865497932 ) ) ;
#780 = ORIENTED_EDGE ( 'NONE', *, *, #515, .F. ) ;
#781 = CARTESIAN_POINT ( 'NONE',  ( -0.03829747875571152399, 0.5574660451731171529, 0.02622750000000000081 ) ) ;
#782 = ORIENTED_EDGE ( 'NONE', *, *, #716, .T. ) ;
#783 = DIRECTION ( 'NONE',  ( 0.000000000000000000, 0.000000000000000000, 1.000000000000000000 ) ) ;
#784 = ORIENTED_EDGE ( 'NONE', *, *, #210, .F. ) ;
#785 = DIRECTION ( 'NONE',  ( -0.000000000000000000, -0.000000000000000000, 1.000000000000000000 ) ) ;
#786 = DIRECTION ( 'NONE',  ( -0.000000000000000000, -0.000000000000000000, 1.000000000000000000 ) ) ;
#787 = COORDINATED_UNIVERSAL_TIME_OFFSET ( 6, 0, .BEHIND. ) ;
#788 = ORIENTED_EDGE ( 'NONE', *, *, #189, .F. ) ;
#789 = EDGE_CURVE ( 'NONE', #941, #256, #23, .T. ) ;
#790 = AXIS2_PLACEMENT_3D ( 'NONE', #943, #3, #288 ) ;
#791 = DIRECTION ( 'NONE',  ( -1.000000000000000000, 0.000000000000000000, 0.000000000000000000 ) ) ;
#792 = ADVANCED_FACE ( 'NONE', ( #441, #312 ), #895, .F. ) ;
#793 = CARTESIAN_POINT ( 'NONE',  ( 0.5587800000000000544, 0.000000000000000000, -0.02622750000000000081 ) ) ;
#794 = EDGE_LOOP ( 'NONE', ( #759, #447, #722, #376 ) ) ;
#795 = LINE ( 'NONE', #300, #96 ) ;
#796 = ORIENTED_EDGE ( 'NONE', *, *, #38, .T. ) ;
#797 = ADVANCED_FACE ( 'NONE', ( #156, #812 ), #735, .F. ) ;
#798 = CARTESIAN_POINT ( 'NONE',  ( 0.000000000000000000, 0.4866312433092492840, 0.000000000000000000 ) ) ;
#799 =( CONVERSION_BASED_UNIT ( 'INCH', #886 ) LENGTH_UNIT ( ) NAMED_UNIT ( #76 ) );
#800 = ORIENTED_EDGE ( 'NONE', *, *, #359, .F. ) ;
#801 = EDGE_LOOP ( 'NONE', ( #423, #488, #862, #202 ) ) ;
#802 = SPHERICAL_SURFACE ( 'NONE', #132, 0.4840000000000000968 ) ;
#803 = CARTESIAN_POINT ( 'NONE',  ( 0.000000000000000000, 0.000000000000000000, -0.02622750000000000081 ) ) ;
#804 = AXIS2_PLACEMENT_3D ( 'NONE', #175, #106, #379 ) ;
#805 = DIRECTION ( 'NONE',  ( 0.000000000000000000, 0.000000000000000000, 1.000000000000000000 ) ) ;
#806 = CARTESIAN_POINT ( 'NONE',  ( 0.000000000000000000, 0.000000000000000000, 0.000000000000000000 ) ) ;
#807 = CARTESIAN_POINT ( 'NONE',  ( 0.005031700350096393777, 0.5937500000000002220, 0.04641743891356112095 ) ) ;
#808 = APPROVAL_ROLE ( '' ) ;
#809 = APPROVAL_PERSON_ORGANIZATION ( #821, #325, #808 ) ;
#810 = CARTESIAN_POINT ( 'NONE',  ( 0.000000000000000000, 0.000000000000000000, 0.04641743891356109319 ) ) ;
#811 = EDGE_CURVE ( 'NONE', #104, #200, #589, .T. ) ;
#812 = FACE_BOUND ( 'NONE', #236, .T. ) ;
#813 = VERTEX_POINT ( 'NONE', #883 ) ;
#814 = CARTESIAN_POINT ( 'NONE',  ( 0.000000000000000000, 0.5937500000000000000, 0.04641743891356109319 ) ) ;
#815 = COORDINATED_UNIVERSAL_TIME_OFFSET ( 6, 0, .BEHIND. ) ;
#816 = DIRECTION ( 'NONE',  ( -0.000000000000000000, -0.000000000000000000, 1.000000000000000000 ) ) ;
#817 = EDGE_CURVE ( 'NONE', #576, #737, #48, .T. ) ;
#818 = CARTESIAN_POINT ( 'NONE',  ( 5.684496799011038759E-18, 0.5937500000000000000, -0.04641743891356109319 ) ) ;
#819 = VERTEX_POINT ( 'NONE', #513 ) ;
#820 = CARTESIAN_POINT ( 'NONE',  ( 0.000000000000000000, 0.000000000000000000, 0.000000000000000000 ) ) ;
#821 = PERSON_AND_ORGANIZATION ( #148, #417 ) ;
#822 = CARTESIAN_POINT ( 'NONE',  ( 0.000000000000000000, 0.000000000000000000, 0.000000000000000000 ) ) ;
#823 = CIRCLE ( 'NONE', #648, 0.4888399999999999412 ) ;
#824 = AXIS2_PLACEMENT_3D ( 'NONE', #472, #196, #59 ) ;
#825 = CIRCLE ( 'NONE', #120, 0.5617499999999999716 ) ;
#826 = FACE_OUTER_BOUND ( 'NONE', #50, .T. ) ;
#827 = PERSON_AND_ORGANIZATION_ROLE ( 'design_supplier' ) ;
#828 = FACE_OUTER_BOUND ( 'NONE', #355, .T. ) ;
#829 = CARTESIAN_POINT ( 'NONE',  ( 0.000000000000000000, 0.000000000000000000, 0.2500000000000000000 ) ) ;
#830 = ORIENTED_EDGE ( 'NONE', *, *, #868, .T. ) ;
#831 = CC_DESIGN_PERSON_AND_ORGANIZATION_ASSIGNMENT ( #566, #224, ( #551 ) ) ;
#832 = DIRECTION ( 'NONE',  ( -0.8660254037844397068, 1.060575238724908024E-16, 0.4999999999999979461 ) ) ;
#833 = EDGE_LOOP ( 'NONE', ( #780, #42, #289, #872 ) ) ;
#834 = EDGE_CURVE ( 'NONE', #911, #286, #823, .T. ) ;
#835 = CARTESIAN_POINT ( 'NONE',  ( 0.000000000000000000, 0.000000000000000000, 0.2500000000000000000 ) ) ;
#836 = ORIENTED_EDGE ( 'NONE', *, *, #515, .T. ) ;
#837 = APPLICATION_CONTEXT ( 'configuration controlled 3d designs of mechanical parts and assemblies' ) ;
#838 = DIRECTION ( 'NONE',  ( 1.000000000000000000, 0.000000000000000000, 0.000000000000000000 ) ) ;
#839 = AXIS2_PLACEMENT_3D ( 'NONE', #498, #877, #437 ) ;
#840 = AXIS2_PLACEMENT_3D ( 'NONE', #32, #516, #30 ) ;
#841 = CIRCLE ( 'NONE', #261, 0.04641743891356109319 ) ;
#842 = ORIENTED_EDGE ( 'NONE', *, *, #110, .F. ) ;
#843 = CARTESIAN_POINT ( 'NONE',  ( 0.000000000000000000, 0.000000000000000000, 0.02622750000000000081 ) ) ;
#844 = CARTESIAN_POINT ( 'NONE',  ( 0.01833536684797952218, 0.5873354651993998310, -0.04287028596818858589 ) ) ;
#845 = EDGE_CURVE ( 'NONE', #819, #173, #366, .T. ) ;
#846 = LOCAL_TIME ( 13, 23, 32.00000000000000000, #84 ) ;
#847 = DIRECTION ( 'NONE',  ( -0.000000000000000000, 0.000000000000000000, -1.000000000000000000 ) ) ;
#848 = ORIENTED_EDGE ( 'NONE', *, *, #591, .T. ) ;
#849 = CARTESIAN_POINT ( 'NONE',  ( 0.000000000000000000, 0.000000000000000000, -0.02622750000000000081 ) ) ;
#850 = EDGE_CURVE ( 'NONE', #935, #344, #556, .T. ) ;
#851 = DIRECTION ( 'NONE',  ( 1.000000000000000000, 0.000000000000000000, 0.000000000000000000 ) ) ;
#852 = ORIENTED_EDGE ( 'NONE', *, *, #661, .F. ) ;
#853 = CYLINDRICAL_SURFACE ( 'NONE', #291, 0.5937500000000000000 ) ;
#854 = ORIENTED_EDGE ( 'NONE', *, *, #682, .T. ) ;
#855 = VECTOR ( 'NONE', #113, 39.37007874015748143 ) ;
#856 = VERTEX_POINT ( 'NONE', #559 ) ;
#857 = AXIS2_PLACEMENT_3D ( 'NONE', #769, #474, #697 ) ;
#858 = CYLINDRICAL_SURFACE ( 'NONE', #857, 0.3125000000000000000 ) ;
#859 = ORIENTED_EDGE ( 'NONE', *, *, #329, .T. ) ;
#860 = LINE ( 'NONE', #342, #874 ) ;
#861 = FACE_OUTER_BOUND ( 'NONE', #721, .T. ) ;
#862 = ORIENTED_EDGE ( 'NONE', *, *, #751, .T. ) ;
#863 = ADVANCED_FACE ( 'NONE', ( #276 ), #305, .F. ) ;
#864 = CARTESIAN_POINT ( 'NONE',  ( 0.5937500000000000000, 7.271340369937410515E-17, 0.2500000000000000000 ) ) ;
#865 = ORIENTED_EDGE ( 'NONE', *, *, #582, .T. ) ;
#866 = DIRECTION ( 'NONE',  ( -0.000000000000000000, -0.000000000000000000, 1.000000000000000000 ) ) ;
#867 = EDGE_CURVE ( 'NONE', #549, #547, #336, .T. ) ;
#868 = EDGE_CURVE ( 'NONE', #401, #715, #228, .T. ) ;
#869 = CARTESIAN_POINT ( 'NONE',  ( 0.000000000000000000, 0.000000000000000000, 0.2500000000000000000 ) ) ;
#870 = PERSON_AND_ORGANIZATION ( #148, #417 ) ;
#871 = ORIENTED_EDGE ( 'NONE', *, *, #283, .T. ) ;
#872 = ORIENTED_EDGE ( 'NONE', *, *, #489, .T. ) ;
#873 = CIRCLE ( 'NONE', #275, 0.5937500000000000000 ) ;
#874 = VECTOR ( 'NONE', #259, 39.37007874015748143 ) ;
#875 = AXIS2_PLACEMENT_3D ( 'NONE', #803, #360, #791 ) ;
#876 = DIRECTION ( 'NONE',  ( -0.000000000000000000, -0.000000000000000000, 1.000000000000000000 ) ) ;
#877 = DIRECTION ( 'NONE',  ( -0.000000000000000000, -0.000000000000000000, -1.000000000000000000 ) ) ;
#878 = VERTEX_POINT ( 'NONE', #728 ) ;
#879 = EDGE_CURVE ( 'NONE', #282, #219, #322, .T. ) ;
#880 = PLANE ( 'NONE',  #790 ) ;
#881 = APPROVAL_ROLE ( '' ) ;
#882 = ORIENTED_EDGE ( 'NONE', *, *, #56, .F. ) ;
#883 = CARTESIAN_POINT ( 'NONE',  ( -0.5937500000000000000, 0.000000000000000000, 0.2179999999999998328 ) ) ;
#884 = CARTESIAN_POINT ( 'NONE',  ( -0.03049073688410746871, 0.5734015420439493305, -0.03513404681792239859 ) ) ;
#885 = DATE_TIME_ROLE ( 'classification_date' ) ;
#886 = LENGTH_MEASURE_WITH_UNIT ( LENGTH_MEASURE( 0.02539999999999999897 ), #718 );
#887 = ORIENTED_EDGE ( 'NONE', *, *, #644, .T. ) ;
#888 = ORIENTED_EDGE ( 'NONE', *, *, #420, .T. ) ;
#889 = CIRCLE ( 'NONE', #180, 0.5937500000000000000 ) ;
#890 = CARTESIAN_POINT ( 'NONE',  ( 0.5587800000000000544, 0.000000000000000000, 0.000000000000000000 ) ) ;
#891 = DIRECTION ( 'NONE',  ( -0.000000000000000000, -0.000000000000000000, 1.000000000000000000 ) ) ;
#892 = VECTOR ( 'NONE', #51, 39.37007874015748143 ) ;
#893 = VECTOR ( 'NONE', #779, 39.37007874015748143 ) ;
#894 = APPLICATION_CONTEXT ( 'configuration controlled 3d designs of mechanical parts and assemblies' ) ;
#895 = PLANE ( 'NONE',  #712 ) ;
#896 = CARTESIAN_POINT ( 'NONE',  ( 0.000000000000000000, 0.000000000000000000, 0.2500000000000000000 ) ) ;
#897 = EDGE_CURVE ( 'NONE', #554, #596, #425, .T. ) ;
#898 = CALENDAR_DATE ( 2026, 5, 1 ) ;
#899 = FACE_OUTER_BOUND ( 'NONE', #138, .T. ) ;
#900 = ORIENTED_EDGE ( 'NONE', *, *, #133, .F. ) ;
#901 = ORIENTED_EDGE ( 'NONE', *, *, #473, .F. ) ;
#902 = CARTESIAN_POINT ( 'NONE',  ( 0.03487012842378126032, 0.5656175904020224188, 0.03079221371140498584 ) ) ;
#903 = ADVANCED_FACE ( 'NONE', ( #861, #92 ), #802, .T. ) ;
#904 = ORIENTED_EDGE ( 'NONE', *, *, #897, .T. ) ;
#905 = CARTESIAN_POINT ( 'NONE',  ( -0.5587800000000000544, 6.843081384275581689E-17, 0.000000000000000000 ) ) ;
#906 = FACE_BOUND ( 'NONE', #928, .T. ) ;
#907 = CYLINDRICAL_SURFACE ( 'NONE', #932, 0.04641743891356109319 ) ;
#908 = CIRCLE ( 'NONE', #572, 0.5617500000000000826 ) ;
#909 = ADVANCED_FACE ( 'NONE', ( #238 ), #471, .T. ) ;
#910 = CARTESIAN_POINT ( 'NONE',  ( 0.03049073688410619890, 0.5734015420439512178, 0.03513404681792349493 ) ) ;
#911 = VERTEX_POINT ( 'NONE', #387 ) ;
#912 = CARTESIAN_POINT ( 'NONE',  ( -0.5937500000000000000, 7.271340369937410515E-17, 0.04641743891356109319 ) ) ;
#913 = FACE_OUTER_BOUND ( 'NONE', #602, .T. ) ;
#914 = CARTESIAN_POINT ( 'NONE',  ( 0.000000000000000000, 0.5937500000000000000, 0.000000000000000000 ) ) ;
#915 = VERTEX_POINT ( 'NONE', #818 ) ;
#916 = DIRECTION ( 'NONE',  ( 0.000000000000000000, 0.000000000000000000, 1.000000000000000000 ) ) ;
#917 = CARTESIAN_POINT ( 'NONE',  ( -0.04641309103809394127, 0.5568490939196621969, 0.004683940779411726284 ) ) ;
#918 = AXIS2_PLACEMENT_3D ( 'NONE', #302, #652, #203 ) ;
#919 = CIRCLE ( 'NONE', #183, 0.4888399999999999412 ) ;
#920 = CIRCLE ( 'NONE', #541, 0.5587800000000000544 ) ;
#921 = DIRECTION ( 'NONE',  ( -0.000000000000000000, -0.000000000000000000, 1.000000000000000000 ) ) ;
#922 = EDGE_LOOP ( 'NONE', ( #740, #619, #80, #584 ) ) ;
#923 = CARTESIAN_POINT ( 'NONE',  ( -0.03829747875571387628, 0.5574660451731142663, -0.02622749999999839446 ) ) ;
#924 = ADVANCED_FACE ( 'NONE', ( #427 ), #208, .T. ) ;
#925 = CARTESIAN_POINT ( 'NONE',  ( 0.5937500000000000000, 7.271340369937410515E-17, 0.2179999999999998328 ) ) ;
#926 = DIRECTION ( 'NONE',  ( 0.000000000000000000, 0.000000000000000000, -1.000000000000000000 ) ) ;
#927 = DIRECTION ( 'NONE',  ( -0.000000000000000000, -0.000000000000000000, 1.000000000000000000 ) ) ;
#928 = EDGE_LOOP ( 'NONE', ( #601, #499 ) ) ;
#929 = DIRECTION ( 'NONE',  ( 0.000000000000000000, 0.000000000000000000, 1.000000000000000000 ) ) ;
#930 = ORIENTED_EDGE ( 'NONE', *, *, #789, .T. ) ;
#931 = EDGE_LOOP ( 'NONE', ( #653, #859, #848, #743 ) ) ;
#932 = AXIS2_PLACEMENT_3D ( 'NONE', #914, #525, #101 ) ;
#933 = AXIS2_PLACEMENT_3D ( 'NONE', #221, #11, #149 ) ;
#934 = CARTESIAN_POINT ( 'NONE',  ( 0.000000000000000000, 0.000000000000000000, 0.000000000000000000 ) ) ;
#935 = VERTEX_POINT ( 'NONE', #734 ) ;
#936 = DIRECTION ( 'NONE',  ( 0.7071067811865483499, 0.000000000000000000, 0.7071067811865467956 ) ) ;
#937 = EDGE_LOOP ( 'NONE', ( #691, #160 ) ) ;
#938 = EDGE_LOOP ( 'NONE', ( #643, #545 ) ) ;
#939 = CARTESIAN_POINT ( 'NONE',  ( 0.03512026267901317139, 0.5657389011453460848, -0.03086688100085847528 ) ) ;
#940 = APPROVAL_STATUS ( 'not_yet_approved' ) ;
#941 = VERTEX_POINT ( 'NONE', #793 ) ;
#942 = ORIENTED_EDGE ( 'NONE', *, *, #834, .T. ) ;
#943 = CARTESIAN_POINT ( 'NONE',  ( -0.5937500000000000000, -0.5937500000000000000, -0.3125000000000000000 ) ) ;
#944 = ADVANCED_FACE ( 'NONE', ( #569 ), #141, .T. ) ;
#945 = MECHANICAL_CONTEXT ( 'NONE', #837, 'mechanical' ) ;
#946 = ORIENTED_EDGE ( 'NONE', *, *, #67, .F. ) ;
ENDSEC;
END-ISO-10303-21;
